<svg id="heading" xmlns="http://www.w3.org/2000/svg" viewBox="0 0 376.44 438.4">
  <defs>
    <style>
      .cls-1, .cls-2 {
        fill: none;
        stroke: #000;
        stroke-linecap: round;
        stroke-linejoin: round;
        stroke-width: 12px;
      }

      .cls-2 {
        fill-rule: evenodd;
      }
    </style>
  </defs>
  <title>aboutHeading</title>
  <g>
    <path d="M121.65,251.22a14.45,14.45,0,0,1-7.86-2.19,15.56,15.56,0,0,1-5.49-5.94,17.69,17.69,0,0,1-2-8.49,16.68,16.68,0,0,1,2.19-8.52,16.2,16.2,0,0,1,5.94-6,16.54,16.54,0,0,1,22.74,6,16.68,16.68,0,0,1,2.19,8.52H137a17.69,17.69,0,0,1-2,8.49,15.56,15.56,0,0,1-5.49,5.94A14.45,14.45,0,0,1,121.65,251.22Zm1.2-5.4a10.24,10.24,0,0,0,5.46-1.47,10.45,10.45,0,0,0,3.78-4,11.84,11.84,0,0,0,1.38-5.73,12,12,0,0,0-1.38-5.79,10.45,10.45,0,0,0-3.78-4,10.82,10.82,0,0,0-10.89,0,10.6,10.6,0,0,0-3.84,4,11.76,11.76,0,0,0-1.41,5.79,11.64,11.64,0,0,0,1.41,5.73,10.6,10.6,0,0,0,3.84,4A10.29,10.29,0,0,0,122.85,245.82ZM136.29,251a3,3,0,0,1-3.06-3.06V238.8l1.14-6.36,5,2.16V248a3,3,0,0,1-3.06,3.06Z" transform="translate(-61.78 -30.8)"/>
    <path d="M165,251.22a16.24,16.24,0,0,1-8.4-2.19,16,16,0,0,1-5.88-6,17.32,17.32,0,0,1-2.22-8.52V207.18a2.94,2.94,0,0,1,.87-2.22,3,3,0,0,1,5.25,2.22v16.2a15.44,15.44,0,0,1,5.07-4,15.18,15.18,0,0,1,14.37.72,15.56,15.56,0,0,1,5.49,5.94,17.69,17.69,0,0,1,2,8.49,16.68,16.68,0,0,1-2.19,8.52A16.15,16.15,0,0,1,165,251.22Zm0-5.4a10.24,10.24,0,0,0,5.46-1.47,10.62,10.62,0,0,0,3.81-4,11.81,11.81,0,0,0,1.41-5.76,11.59,11.59,0,0,0-1.41-5.76,10.74,10.74,0,0,0-3.81-4,10.82,10.82,0,0,0-10.89,0,10.44,10.44,0,0,0-3.81,4,11.8,11.8,0,0,0-1.38,5.76,12,12,0,0,0,1.38,5.76,10.27,10.27,0,0,0,9.24,5.52Z" transform="translate(-61.78 -30.8)"/>
    <path d="M205.53,251.22a17,17,0,0,1-8.58-2.13,15.44,15.44,0,0,1-5.85-5.88,18.59,18.59,0,0,1,0-17.28,15.44,15.44,0,0,1,5.85-5.88,18.23,18.23,0,0,1,17.1,0,15.44,15.44,0,0,1,5.85,5.88,18.71,18.71,0,0,1,0,17.28,15.22,15.22,0,0,1-5.82,5.88A17,17,0,0,1,205.53,251.22Zm0-5.4a10.52,10.52,0,0,0,5.52-1.44,10.07,10.07,0,0,0,3.75-4,12.14,12.14,0,0,0,1.35-5.82,12.31,12.31,0,0,0-1.35-5.85,10,10,0,0,0-3.75-4,11.3,11.3,0,0,0-11,0,10.23,10.23,0,0,0-3.78,4,12.1,12.1,0,0,0-1.38,5.85,11.92,11.92,0,0,0,1.38,5.82,10.29,10.29,0,0,0,3.78,4A10.52,10.52,0,0,0,205.53,245.82Z" transform="translate(-61.78 -30.8)"/>
    <path d="M245,251.28a15.31,15.31,0,0,1-7.41-1.77,12.71,12.71,0,0,1-5.16-5.19,17.16,17.16,0,0,1-1.89-8.4V221.16a3.1,3.1,0,0,1,5.25-2.19,3,3,0,0,1,.87,2.19v14.76a11,11,0,0,0,1.26,5.55,7.85,7.85,0,0,0,3.42,3.24,11,11,0,0,0,4.86,1,10,10,0,0,0,4.59-1A8.55,8.55,0,0,0,254,242a6.71,6.71,0,0,0,1.2-3.9h3.77a12.65,12.65,0,0,1-1.83,6.72,13.24,13.24,0,0,1-5,4.74A14.61,14.61,0,0,1,245,251.28Zm13.26-.3a3,3,0,0,1-2.2-.87,3,3,0,0,1-.86-2.19V221.16a2.94,2.94,0,0,1,.86-2.22,3,3,0,0,1,2.2-.84,2.89,2.89,0,0,1,3.05,3.06v26.76a3,3,0,0,1-.84,2.19A2.94,2.94,0,0,1,258.21,251Z" transform="translate(-61.78 -30.8)"/>
    <path d="M270.68,224.52a2.85,2.85,0,0,1-2-.72,2.31,2.31,0,0,1-.78-1.8,2.45,2.45,0,0,1,.78-1.92,2.85,2.85,0,0,1,2-.72h13.86a2.89,2.89,0,0,1,2,.72,2.49,2.49,0,0,1,.79,1.92,2.36,2.36,0,0,1-.79,1.8,2.89,2.89,0,0,1-2,.72ZM284,251a9.78,9.78,0,0,1-5.39-1.53,10.66,10.66,0,0,1-3.78-4.17,12.51,12.51,0,0,1-1.38-5.94V210.72a2.88,2.88,0,0,1,3-3,3,3,0,0,1,2.16.84,2.92,2.92,0,0,1,.84,2.16v28.62a6.15,6.15,0,0,0,1.31,4A4,4,0,0,0,284,245h2a2.4,2.4,0,0,1,1.84.84,3.12,3.12,0,0,1,.74,2.16,2.7,2.7,0,0,1-1,2.16,3.8,3.8,0,0,1-2.55.84Z" transform="translate(-61.78 -30.8)"/>
  </g>
  <line class="cls-1" x1="301.8" y1="244.09" x2="11.49" y2="245.37"/>
  <path class="cls-2" d="M156.34,463C97.45,422.67,55.91,347.47,70.84,262.34,87.11,169.49,124.12,79.68,182.94,40M315.27,36.8c60.72,37,98.44,126.1,114.47,225.54C443,344.68,401.56,422,342.57,463.2" transform="translate(-61.78 -30.8)"/>
</svg>
