<svg id="Layer_1" data-name="Layer 1" xmlns="http://www.w3.org/2000/svg" width="485.97" height="408.75" viewBox="0 0 485.97 408.75">
  <defs>
    <style>
      .cls-1 {
        fill: #f4ddb8;
      }

      .cls-2 {
        fill: #c6b08d;
      }

      .cls-3 {
        fill: #e5cea3;
      }

      .cls-4 {
        fill: #af9672;
        opacity: 0.45;
      }

      .cls-10, .cls-5 {
        fill: none;
        stroke-linecap: round;
        stroke-miterlimit: 10;
        stroke-width: 2.56px;
      }

      .cls-5 {
        stroke: #e0b873;
      }

      .cls-6 {
        fill: #052328;
      }

      .cls-7 {
        fill: #0c4856;
      }

      .cls-8 {
        fill: #216d87;
      }

      .cls-9 {
        fill: #0b3f47;
      }

      .cls-10 {
        stroke: #e5ca93;
      }

      .cls-11 {
        fill: #cfebf9;
      }

      .cls-12 {
        fill: #bae4f4;
      }

      .cls-13 {
        fill: #eefbff;
      }

      .cls-14 {
        fill: #fff;
      }
    </style>
  </defs>
  <title>product</title>
  <polygon class="cls-1" points="1.4 246.05 291.37 309.03 291.37 408.75 4.03 341.83 1.4 246.05"/>
  <polygon class="cls-2" points="485.97 198.96 291.37 309.03 291.37 408.75 485.97 291.71 485.97 198.96"/>
  <polygon class="cls-3" points="0 247.5 237.23 148.4 485.78 198.87 291.37 309.03 0 247.5"/>
  <path class="cls-4" d="M297.76,280.7s85.4-4.6,124-25.84,60.86-32.53,60.86-32.53L358.09,195.64Z" transform="translate(-5.99 -25)"/>
  <polygon class="cls-4" points="153.19 246.55 214.12 244.94 173.34 224.8 153.19 246.55"/>
  <path class="cls-5" d="M297.11,75.12s-11.37-53.2-33.06-48.56-8.78,41.84-8.78,41.84" transform="translate(-5.99 -25)"/>
  <polyline class="cls-6" points="191.18 40.27 218.67 41.49 224.05 38.51 318.27 49.76 287.93 56.98 191.18 40.27"/>
  <path class="cls-7" d="M299.44,80.36l24.83-5.61s5.44,49,25.42,75.81,20.42,94,20.42,94S337,256.78,325.17,268.58s-27.41,12.12-27.41,12.12-11.62-75.23,4.19-109" transform="translate(-5.99 -25)"/>
  <path class="cls-8" d="M197.17,65.27s-11.73,78.79-23.47,104.78-5.87,84.66-5.87,84.66,47.78,27.66,129.93,26c0,0-9.49-58.81,4.19-109,2.52-9.22,1.68-73.76-2.51-91.36Z" transform="translate(-5.99 -25)"/>
  <path class="cls-9" d="M299.44,80.36l21.46,81.28c-6.25-34.65,3.37-86.89,3.37-86.89l-34-1.08,9.16,6.69" transform="translate(-5.99 -25)"/>
  <circle class="cls-6" cx="220.1" cy="52.63" r="2.67"/>
  <circle class="cls-6" cx="259.11" cy="58.25" r="2.67"/>
  <path class="cls-10" d="M226.39,76.38s9.73-50.32,34.27-49.49,4.63,54.82,4.63,54.82" transform="translate(-5.99 -25)"/>
  <polygon class="cls-11" points="80.98 233.99 153.19 246.55 159.68 157.98 99.84 149.85 80.98 233.99"/>
  <polygon class="cls-12" points="159.68 157.98 171.37 237.4 158.36 239.82 153.19 246.55 159.68 157.98"/>
  <polygon class="cls-12" points="159.68 157.98 149.46 177.1 95.57 169.61 99.84 149.85 159.68 157.98"/>
  <polygon class="cls-13" points="159.68 157.98 149.53 173.36 91.8 165.34 99.84 149.85 159.68 157.98"/>
  <g>
    <path class="cls-14" d="M273,172.68c-.05.29.28.23.33.28C273.27,172.45,272.89,172.69,273,172.68Z" transform="translate(-5.99 -25)"/>
    <path class="cls-14" d="M272.17,168l.13.06a4.84,4.84,0,0,0-.41-.63A4.3,4.3,0,0,1,272.17,168Z" transform="translate(-5.99 -25)"/>
    <path class="cls-14" d="M271.09,163.76c-.38.57.65,1.43.58,2.27l-.09.15.51.24c-.15-.45-.34-1-.54-1.44A4.07,4.07,0,0,1,271.09,163.76Z" transform="translate(-5.99 -25)"/>
    <path class="cls-14" d="M271.25,161.13c-.12.22-.4-.39.19.53a.41.41,0,0,1,0-.12A3.14,3.14,0,0,1,271.25,161.13Z" transform="translate(-5.99 -25)"/>
    <path class="cls-14" d="M271.45,161.54c.22.43,0-.35,0,0Z" transform="translate(-5.99 -25)"/>
    <path class="cls-14" d="M270.34,159.65c.17.13.3.3.46.45.05-.18-.19-.69,0-.55C270.35,159.06,270.32,159.24,270.34,159.65Z" transform="translate(-5.99 -25)"/>
    <path class="cls-14" d="M269.68,159.36l.24.23C269.93,159.51,269.9,159.43,269.68,159.36Z" transform="translate(-5.99 -25)"/>
    <path class="cls-14" d="M270.41,160.08a4.53,4.53,0,0,0-.49-.49c0,.12-.18.21.22.23C270,159.85,270.18,159.88,270.41,160.08Z" transform="translate(-5.99 -25)"/>
    <path class="cls-14" d="M270.51,160.47c.05.37.18.79-.26.34C270.84,161.81,271.11,161.5,270.51,160.47Z" transform="translate(-5.99 -25)"/>
    <path class="cls-14" d="M270.48,163.76v.46l.3.3C270.63,164.37,270.64,163.67,270.48,163.76Z" transform="translate(-5.99 -25)"/>
    <path class="cls-14" d="M268.36,156.31c-.11,0-.11.35-.2.48l.39.27C268.47,156.83,268.25,156.44,268.36,156.31Z" transform="translate(-5.99 -25)"/>
    <path class="cls-14" d="M268.16,156.79l-.58-.4C267.94,156.87,268.08,156.9,268.16,156.79Z" transform="translate(-5.99 -25)"/>
    <path class="cls-14" d="M269.1,159.59a11,11,0,0,1,.93.72,12.66,12.66,0,0,0-1-.89Z" transform="translate(-5.99 -25)"/>
    <polygon class="cls-14" points="260.67 129.33 261.14 129.42 260.36 129.21 260.67 129.33"/>
    <path class="cls-14" d="M265.42,153.12c.35,0,0-.55.29-.44a3.2,3.2,0,0,0-1.2-.51A1.92,1.92,0,0,1,265.42,153.12Z" transform="translate(-5.99 -25)"/>
    <path class="cls-14" d="M263.89,152a4.11,4.11,0,0,0,.62.2A2.05,2.05,0,0,0,263.89,152Z" transform="translate(-5.99 -25)"/>
    <path class="cls-14" d="M266.9,155.46a.67.67,0,0,0-.11-.6l-.06.41C266.78,155.33,266.85,155.39,266.9,155.46Z" transform="translate(-5.99 -25)"/>
    <path class="cls-14" d="M266.73,155.28h0l-.39-.42Z" transform="translate(-5.99 -25)"/>
    <path class="cls-14" d="M266.94,155.52l0-.06S266.9,155.52,266.94,155.52Z" transform="translate(-5.99 -25)"/>
    <path class="cls-14" d="M268.4,158c-.37-.22-1-.71-.78.06C268,158.11,267.83,157.66,268.4,158Z" transform="translate(-5.99 -25)"/>
    <path class="cls-14" d="M266.84,156l.38.59c.06-.06.08-.24.27-.15Z" transform="translate(-5.99 -25)"/>
    <polygon class="cls-14" points="260.55 130.85 260.85 131.04 260.7 130.82 260.55 130.85"/>
    <path class="cls-14" d="M264.62,153a2.84,2.84,0,0,1-.9-.52,8.73,8.73,0,0,0,.86.86C264.69,153.29,265,153.27,264.62,153Z" transform="translate(-5.99 -25)"/>
    <path class="cls-14" d="M265.63,154.11l-.06,0S265.6,154.16,265.63,154.11Z" transform="translate(-5.99 -25)"/>
    <polygon class="cls-14" points="254.8 125.22 254.81 125.3 254.86 125.27 254.8 125.22"/>
    <path class="cls-14" d="M264.59,153.42a.84.84,0,0,0,.55.37c-.19-.13-.36-.3-.56-.46C264.53,153.35,264.51,153.37,264.59,153.42Z" transform="translate(-5.99 -25)"/>
    <path class="cls-14" d="M263,151.41a5.21,5.21,0,0,0,.29.49C263.23,151.72,263.09,151.38,263,151.41Z" transform="translate(-5.99 -25)"/>
    <path class="cls-14" d="M265.57,153.94l0,0C265.59,153.84,265.57,153.87,265.57,153.94Z" transform="translate(-5.99 -25)"/>
    <path class="cls-14" d="M265.57,153.94a2,2,0,0,0-.43-.15,2.5,2.5,0,0,0,.43.29A.33.33,0,0,1,265.57,153.94Z" transform="translate(-5.99 -25)"/>
    <path class="cls-14" d="M258.73,151.36c.22-.25,1,0,1.33.61.66.18.91-.87.75-1.67-.1.1-.17.2-.83-.05.11.28,1,1.2.39,1.09-.81-.39-.53-.51-.8-.9.11.5-1.27-.11-1.39.46l.76.23C258.9,151.21,258.59,151.18,258.73,151.36Z" transform="translate(-5.99 -25)"/>
    <path class="cls-14" d="M261.86,151.09l.26.14a3.33,3.33,0,0,1-.57-.91c-.47-.16-.62-.12-.7-.06l1.12.85Z" transform="translate(-5.99 -25)"/>
    <path class="cls-14" d="M263.12,152c-.38.12-1-.21-.89.34.64.51.62.16,1.09.37-1.08-.81.41.11-.21-.67a4.31,4.31,0,0,1,.61.41c-.16-.19-.31-.38-.44-.57v0h0c0,.07,0,.1,0,0h0a.29.29,0,0,1-.13.05c-.25-.3,0-.1.13-.05l0,0h0c-.39-.24-.76-.5-1.17-.7C262.33,151.42,262.62,151.63,263.12,152Z" transform="translate(-5.99 -25)"/>
    <path class="cls-14" d="M266.61,157.92a.08.08,0,0,1,0-.08C266.56,157.8,266.52,157.79,266.61,157.92Z" transform="translate(-5.99 -25)"/>
    <path class="cls-14" d="M266.43,157.38a.58.58,0,0,1,.42.28c.09.27-.13.1-.2.18.18.08.6.36.35-.2l-.09,0c-.24-.48-.36-1.28-.27-1.24A2.62,2.62,0,0,0,266.43,157.38Z" transform="translate(-5.99 -25)"/>
    <path class="cls-14" d="M264.85,154.67c-.3-.22-.58-.46-.9-.66a6.08,6.08,0,0,1,.21.6l.1-.14C264.65,155,264.7,154.71,264.85,154.67Z" transform="translate(-5.99 -25)"/>
    <polygon class="cls-14" points="254.79 125.01 255.11 124.81 254.3 124.84 254.79 125.01"/>
    <polygon class="cls-14" points="253.53 124.24 253.74 124.01 253.31 123.97 253.53 124.24"/>
    <path class="cls-14" d="M211.51,178.18l.25.18A1.57,1.57,0,0,0,211.51,178.18Z" transform="translate(-5.99 -25)"/>
    <path class="cls-14" d="M210.35,176.42l-.16,0C210.31,176.5,210.39,176.5,210.35,176.42Z" transform="translate(-5.99 -25)"/>
    <path class="cls-14" d="M225.05,144.13c-.54-.16-1.18-.4-1-.1l.24.28A1.38,1.38,0,0,1,225.05,144.13Z" transform="translate(-5.99 -25)"/>
    <path class="cls-14" d="M207.44,159.59l.15-.08-.16-.42Z" transform="translate(-5.99 -25)"/>
    <path class="cls-14" d="M208.56,160.43a3.49,3.49,0,0,0-.43.43C208.23,160.76,208.38,160.63,208.56,160.43Z" transform="translate(-5.99 -25)"/>
    <path class="cls-14" d="M220.5,185.48l.46-.11C220.5,185.09,220.62,185.36,220.5,185.48Z" transform="translate(-5.99 -25)"/>
    <path class="cls-14" d="M245.68,143.88a3.12,3.12,0,0,0-1-.41C245.17,143.73,245.49,144.13,245.68,143.88Z" transform="translate(-5.99 -25)"/>
    <path class="cls-14" d="M208.12,179.53c.16.14.26.17.32.12C208.28,179.51,208.16,179.45,208.12,179.53Z" transform="translate(-5.99 -25)"/>
    <path class="cls-14" d="M243.53,143.29l.2.11a3.74,3.74,0,0,1,1,.07A1.32,1.32,0,0,0,243.53,143.29Z" transform="translate(-5.99 -25)"/>
    <path class="cls-14" d="M261.18,185.1l.1,0C261.26,185,261.22,185.06,261.18,185.1Z" transform="translate(-5.99 -25)"/>
    <path class="cls-14" d="M271.6,176.88c0,.14-.1.36-.17.57A1.85,1.85,0,0,0,271.6,176.88Z" transform="translate(-5.99 -25)"/>
    <path class="cls-14" d="M254.38,146.36c.3.09.06,0,0,0Z" transform="translate(-5.99 -25)"/>
    <path class="cls-14" d="M255.18,148.19a.21.21,0,0,0-.18.1A.24.24,0,0,1,255.18,148.19Z" transform="translate(-5.99 -25)"/>
    <path class="cls-14" d="M240.28,145h0C240.34,145,240.33,145,240.28,145Z" transform="translate(-5.99 -25)"/>
    <path class="cls-14" d="M254.75,146.68a1.43,1.43,0,0,0-.33-.25A3.59,3.59,0,0,0,254.75,146.68Z" transform="translate(-5.99 -25)"/>
    <path class="cls-14" d="M254.75,146.51l.23.15C255,146.63,255,146.58,254.75,146.51Z" transform="translate(-5.99 -25)"/>
    <path class="cls-14" d="M254,146.21a2.36,2.36,0,0,1,.45.22s-.06-.07,0-.07Z" transform="translate(-5.99 -25)"/>
    <path class="cls-14" d="M239.42,192l.06,0C239.78,191.84,239.65,191.86,239.42,192Z" transform="translate(-5.99 -25)"/>
    <path class="cls-14" d="M219.08,150.1s0,0,0,0h0Z" transform="translate(-5.99 -25)"/>
    <path class="cls-14" d="M218.3,150.77a.84.84,0,0,1,.76-.69l-.75-.7C218.3,149.85,218.3,150.31,218.3,150.77Z" transform="translate(-5.99 -25)"/>
    <path class="cls-14" d="M215,181.86a7.27,7.27,0,0,1-.32-.69c.95.21,1.3.69,1.09,0-.84.76-1.93-1.76-2.78-1.11a3.79,3.79,0,0,1-.14-.48c.07.1.13.08.21.18-.19-1-1,0-1.61-1-.19-.37-.24-.68,0-.54a5.93,5.93,0,0,1-.73-.57c-.12-.23.06-.28.19-.05l-.81-1.09h0a3.28,3.28,0,0,1-.89-.47c0-.38.17.11.24,0l-.56-.56c.1-.39.62,0,.81.52.61-1.12-.51-.44-.63-2l.43.56a1.12,1.12,0,0,0,.08-.85,3.17,3.17,0,0,1-.06-1c-.14.21-.34,1.78-.86,1.14a1.14,1.14,0,0,0-.41-.87c.35-.13.12-.49-.08-1l.48-.11c-.3-.49-.5-.39-.79-.65a.94.94,0,0,1,.53-1c-.14-1-.44.79-.8-.35a4.91,4.91,0,0,0-.53-2.4c.2-.59.3.1.45-.12l-.36-.52c0-.13.13-.08.19-.06-.13-.44-.49-.05-.59-.77-.25-.11-.07-.48.18-.9a1.45,1.45,0,0,0,.33-1.38c.17-.18.27.16.47.14a6.41,6.41,0,0,1-.11-1.13c0-.24-.06-.46-.15-1l.57-.69c-.54.46-.74-.47-.69-1.27a4.07,4.07,0,0,0-.63.35l.29-1.2c.14-.1.24.09.33.35v-.25c.35-.3.5,0,.61.42l-.45.25c.14.39.33.75.62.82a.81.81,0,0,1,0-.39c0,.1.08.17.14.16s0-.16,0-.38l.6,0-.17-.15a10.26,10.26,0,0,1,1-1.1c.05-.56,0-1.16.11-1.82a5,5,0,0,1,.82-2.07c0,.6.43.51.77.84-.33,0-.51.3-.67.65a5.55,5.55,0,0,1-.58,1.1c.29-.35.42-.13.42,0,.15-.51.4-1,.6-1.46.27.28.43-.06.8-.25-.37-.14-.31-.47-.06-.79a8.14,8.14,0,0,0,.79-1c.2.16.28.46-.32.94,1-.15.17-1.41,1.12-1.63-.13.13-.23.17-.2.32.15-.5,1.17-1,1.09-.66l-.14.12c.26-.17.58-.4.91-.66s.66-.55,1-.79c.64-.51,1.14-1,1.05-1.38a4.28,4.28,0,0,1,.27.93,22.27,22.27,0,0,1,1-3c.07.59,1.34,1.45.55,2.2a2,2,0,0,0,1.15-.6c-.22,0-.81-.51-.58-.68a10.7,10.7,0,0,0,1.72.2c-.33,0-.36-.94.12-1.1,0,.15.36.79.23.94l.82-1.26c-.23.26.2.71.53.84-.17-.12,1-.29,1.28-.46l-.55,0c1.34-.26.93-1.63,2.32-1.89-.12.22-.13,1.16.57,1.12.19-.48.91-2.45,2.14-3l.28.21.93-.42c-.53.74-1.94,2.35-2.66,3.12.54.08.21.26.94.07.31.18-.33.45-.54.51a12.51,12.51,0,0,1,1.74-.17c-.16-.5,1.26-.71,1.14-1.13l-1.83.81c-.18-.5.87-1.61,2.17-1.71.35.16-.13.95-.08,1.12a1.62,1.62,0,0,1,.64-.32c.29-.06.58-.09.64,0l-.5.31c.71.15,1.09-.76,2-.33.3,0,.89.61.93.3a3.59,3.59,0,0,1-.36-2.84,8.9,8.9,0,0,1,2,.84c.49.47-.75,1.1-.32,1.5,0-.14.28-.31.39-.37.31.13-.13.44.54.38.13-.52,1.37.05.33-.44.67-.15.7.11,1.48.15-.23-.36.77-1.09,1.47-1.18,0,.12.09.31.15.39,1.38.13,2.07.57,3.34.74.1.15.67.39.38.57a1.28,1.28,0,0,1,.78-.14c.65.61-.87-.11-.41.54.11-.29,1.07-.18,1.66-.24-.07-.49-1.25-.41-1.83-.3.11-.67,1.21-1.11,2.63-1.09,1.1.1.35.52.56.47,1.94.64,2-.58,3.51.36.52.59-.24.79-.19,1.11-.89-.11-1.21-.65-1.78-.81l.64.4a1.85,1.85,0,0,1-1.17-.23,5.91,5.91,0,0,0,1.95.83,12.37,12.37,0,0,1,2.58,1.2c.31,0,.81,0,.67-.21l-.49-.13c-.29-.48,1-.08.53-.46a3.81,3.81,0,0,1,2.33.65l-.05.49c0-.13-.43-.52-.74-.51.46,0,1,1.21,1.69.85l-.45-.58a4.14,4.14,0,0,1,2.37.66c-.1-.6-.19-.06-.45-.84.06.43-.41.14-.85-.12s-.88-.44-.66.06c-.27-.84-.85-.72-1.36-1.57,0,.15.14.4-.49,0a.42.42,0,0,1-.2.05l0,0,0,0s0,0,0,0a.87.87,0,0,1,.24.38c-.46.14-1.51-.29-1.94-.26-.36-.22.23-.1.08-.34l-.63.05c.07-.34-.85-1,.16-.77l-.84-.35a2.72,2.72,0,0,0-1.61-.66c-.39-.21-1.15,0-.71-.11-.48-.07-.95-.16-1.42-.21v-.08a16.27,16.27,0,0,0-2.16-.31,7.3,7.3,0,0,1-1.11-.23,4.2,4.2,0,0,1-1.12-.44,5.05,5.05,0,0,1-1.74-.18l-.12-.32c-.61,0-1.79-.46-2.08-.18-.29-.43-1-.54-1.84-.55a15.64,15.64,0,0,1-2.19.07l0,.39a8.55,8.55,0,0,0-1.12.05c-.38.06-.78.16-1.23.27l.08.34c-.76.36-2-.16-3.25.09.06-.14.38-.15.61-.1a3.22,3.22,0,0,0-2.28.24,4.14,4.14,0,0,1-2.13.52,1,1,0,0,1-.8.17.19.19,0,0,0,.08,0l-.14,0-.5-.08a1.58,1.58,0,0,0,.43.09,3.63,3.63,0,0,0-1,.4l-.25-.31-.09,0c-.4,0-.24.25,0,.46a1.94,1.94,0,0,0-.42.37c-.47-.48-.89.48-1.5,0-.15.34-1.73.93-1.67,1.6,0-.07-.16-.07,0-.15a2,2,0,0,0-1.12.49l-.36-.35-.56,1c-.62,0-.92,0-.57-.63-1,1.14-.93.65-1.63,1.75l-.1-.3c-.35.23-.69.93-1,.85a2.34,2.34,0,0,0-1.11.4c-.43.28-.93.65-1.46,1s-1.06.89-1.6,1.34-1.1.86-1.57,1.26c1,.23-1,.6-.57,1.13-.25,0-.57.16-.46-.26a15.27,15.27,0,0,1-.92,1.22,1.68,1.68,0,0,0-.46,1.18c-.26,0-.12-.39-.3-.35,0,.11-.06.44-.24.48s-.05-.25,0-.46a1.31,1.31,0,0,0-.23,1.27,1.65,1.65,0,0,0,.63.68,1.05,1.05,0,0,0-.48,1.32c-.28.11-.64.37-.36-.36-.28.34-1.18,2.48-.75,2.64-.18.09-.2.58-.16.71a17.69,17.69,0,0,0-.4,2l.13-.25c.49.45,0,.8.06,1.59l-.06,0c-.48,1.77.08.75-.26,2.53l.36-.12c.4,0,.32.43.19.94a2.09,2.09,0,0,0,0,1.61l.13-.4c.39.46-.73,1.76-.65,2.37,0,.14-.18-.15-.26-.32,0,1.6.52.06,1,1.08-.18.28-.72,0-.5.7,0,.21.33.69.77,1.18a2.92,2.92,0,0,1,.89,1.64c.07-.3.15-.59.51-.21.39.66.49,2.2,1.38,2.45,0,.12,0,.18-.05.21.47.41,1.42,1.36,1.9,1.41a.82.82,0,0,0,.16.92,5.63,5.63,0,0,0,1,.79c.72.48,1.37.9,1,1.32l1.43,1.13-.11.06a2.24,2.24,0,0,0,1.85.83c.16.22-.06.19-.11.23a3.74,3.74,0,0,0,2.92,1.46l-.07.4c.22,0,.66.44,1.26.94a5.77,5.77,0,0,0,2.26,1.11.24.24,0,0,1-.23.08,11.41,11.41,0,0,1,2.7,1.36c.84.51,1.63.8,2.17.23l1.26,0c-1.46-.56.4-.5-.14-.91.59.1,1.37.87.64.71l-.09-.1c-.24.3.21.51.69.7s1,.28.94.51c.76.17,1.5.36,2.24.57l2.23.48,1.1.24c.37.07.74.12,1.11.17.74.1,1.47.19,2.2.26l-.31-.59c.34,0,.67.07,1,.08s.34.44-.38.41c.37.32,1.22-.26,1.24-.38,1.42.24-.56.65-.13.67l.6,0-.14-.06c.49-.23.53-.47,1.39-.44.56.11.3.35.51.36,0,0,.08,0,.34,0l1.29,0-.54-.41c.55-.25,1.19,0,.57-.52a4.25,4.25,0,0,0,2.79.17c1.14-.15,2.22-.38,2.49-.35a6,6,0,0,1,2.42-.83c-.26,0-.51-.46.29-.64,0,1.08,1.57,0,2.46.48-.73-.23,2.2-1,1.06-1.28.67-.18.18.35.76.37a5.64,5.64,0,0,1,1.17-.61c.41-.2.86-.38,1.31-.56s.94-.35,1.41-.55a10.85,10.85,0,0,0,1.34-.81c-.05-.13-.45-.12-.18-.53l1.3,0c.31-.3-.14-.86.73-.94-.15,0-.38-.07-.18-.27a15.07,15.07,0,0,0,1.32-.81,12.57,12.57,0,0,0,1.17-1,14.67,14.67,0,0,0,1.1-1.13l1-1.24.5-.62.44-.66c.29-.45.59-.88.92-1.31s.56-.9.89-1.33.69-.86,1-1.33c-.43.46-.33.08-.2-.34-.15.25-.31-.13-.5-.14l1.05-1.52c-.35-.43.35-1.89-.08-2.15l0,.56c-.43-.81-1.43.73-2.12.43.26.45-.18.85-.53,1.3a1.92,1.92,0,0,0-.55,1.67c-.26.17-.12-.31-.34-.25.16.4.05.77-.38,1.32l0-.11c-.89,1.7-1.63,2.22-3.17,3.68l.37.13a1.39,1.39,0,0,1-.72.39c0,.38.25.16.5-.06s.46-.49.53-.1c-.45,0-1.06.56-1.65,1.1s-1.21,1-1.64.8c-.57.43.43.2-.14.63l-.29-.06,0,.34a.69.69,0,0,1-.88,0c.1-.05.22-.24.31-.33-.6.18-1.38,1-1.59,1.06l.66-.25a13.83,13.83,0,0,1-2.67,1.65l-1.42.76a9,9,0,0,0-1.32.77l.2.11c-1.26.86-1.17.25-2.66.88l0-.06a2.38,2.38,0,0,1-1.09.58c.35-.29-.84-.19-.38-.53-1.47.68-.7.43-1.6,1.29l-.3-.23a1.5,1.5,0,0,1-1.11.69c.62-.34-.59-.36.1-.78-1.77-.4-2.43,1-3.31.15-.35.42,0,.5.44.5s.86-.13.65,0c.4.2-.58.69-1.13.62s-1-.94-2.37-.84c.13,0,.14-.06.27-.07-.51-.14-1,.28-1.62,0-.36.48-.82,0-.93.58l1.27-.13c-.71.14-1.41.88-2.6.48a2.77,2.77,0,0,1,.71-.34c-.34-.17-.67.09-1-.12.13-.57,1.54-.07,2.31-.54-.36-.26-1.45.44-1.05-.22-.58.86-1.33-.18-2.29.39l.09-.36a1.83,1.83,0,0,1-.73.17l.52-.44c-.78.34-1.39-.44-2.11-.36,1.47.21.28.5.87.84-1.91.23-.93-1.11-3-1.24.28,0,1,.38.53.48a2.77,2.77,0,0,1-1.06-.59c-1.33-.24.13.41-.48.5-.36-.54-.69,0-1.31,0l.08-.36c-1.46-.6-.61.7-1.9,0l.71-.32c-.25,0-.49-.06-.74-.09l.26-.36a2.67,2.67,0,0,1-1.76-.43c.09.3-.31.61-1,.4-.37-.38.36-.23-.57-.55.29-.13.61-.31.89.15.08-.1.29-.15.37-.25a4.16,4.16,0,0,0-1.49-.62,1,1,0,0,1,.32.22l-1.51,0c-.15-.21.06-.25.26-.28a5.37,5.37,0,0,1-.93-.12c.22-.22.32-.52.92-.44a12.27,12.27,0,0,1-1.35-.23c0-.16-.46-.63-.25-.65-.57-.48-1.9-.26-2.61-1a.67.67,0,0,1-.39-.05c-.38-.27-.7-.58-1.06-.85a3,3,0,0,0-1.29-.72l-.18-.79c-.76-.39.28,1-1,.37-.88-.52,0-.6-.17-.94-.53-.12-1.61-.24-2-1.21C214.65,181.49,214.78,181.71,215,181.86Zm-6.28-8.13c.12.17.55.41.41.63C208.68,174.33,208.75,174.1,208.75,173.73Zm0-15.26c0,.2-.11.38-.36.56A1.3,1.3,0,0,1,208.77,158.47Zm42.34-13.06h0C250.65,145.13,250.8,145.24,251.11,145.41Zm.92.51c.12,0,.13-.06.11-.13s-.32,0-.56-.14C251.61,145.77,251.72,145.88,252,145.92Zm-9.44,48.52-.2-.08C242.84,194.22,242.72,194.33,242.59,194.44Z" transform="translate(-5.99 -25)"/>
    <path class="cls-14" d="M208.43,160.33a.41.41,0,0,1-.22,0C208.23,160.42,208.29,160.45,208.43,160.33Z" transform="translate(-5.99 -25)"/>
    <path class="cls-14" d="M220.41,185.51l0,0,.06-.05Z" transform="translate(-5.99 -25)"/>
    <path class="cls-14" d="M236.3,146.22a.87.87,0,0,1-.38-.2C235.91,146.11,236,146.19,236.3,146.22Z" transform="translate(-5.99 -25)"/>
    <path class="cls-14" d="M257.36,147.61l-.65-.21a1.14,1.14,0,0,1,.49.37C257.22,147.69,257.17,147.52,257.36,147.61Z" transform="translate(-5.99 -25)"/>
    <path class="cls-14" d="M261,152.61c.1,0,.16.12.26.13l.09-.15C261,152.37,260.66,152.32,261,152.61Z" transform="translate(-5.99 -25)"/>
    <path class="cls-14" d="M257.31,149c-.1.3.3.42.72.6l-.07,0C258.3,149.24,257.8,149.11,257.31,149Z" transform="translate(-5.99 -25)"/>
    <path class="cls-14" d="M258.13,149.64a1.68,1.68,0,0,1,.37.21C258.64,149.72,258.37,149.73,258.13,149.64Z" transform="translate(-5.99 -25)"/>
    <path class="cls-14" d="M253.34,146.21c.17.16.28-.31.35-.15C254.07,145.78,252.12,146,253.34,146.21Z" transform="translate(-5.99 -25)"/>
    <polygon class="cls-14" points="251.13 125.08 251.18 124.66 250.82 124.81 251.13 125.08"/>
    <path class="cls-14" d="M254.09,148.21l.6.41c0-.06.12-.06.23,0C254.53,148.38,254.12,148.1,254.09,148.21Z" transform="translate(-5.99 -25)"/>
    <path class="cls-14" d="M254.92,148.59a1.43,1.43,0,0,0,.55.2A3.09,3.09,0,0,0,254.92,148.59Z" transform="translate(-5.99 -25)"/>
    <polygon class="cls-14" points="250.23 124.7 250.08 124.54 249.63 124.29 250.23 124.7"/>
    <path class="cls-14" d="M246.78,145.64l-.79-.07c-.11.11.08.24.38.25S246.87,145.79,246.78,145.64Z" transform="translate(-5.99 -25)"/>
    <path class="cls-14" d="M248.77,147.28c-.18-.14-.16-.22-.24-.38l-.16.45Z" transform="translate(-5.99 -25)"/>
    <path class="cls-14" d="M246.58,146.79c-.11.12-1.17.12-.22.31C246.47,147,247.24,147.06,246.58,146.79Z" transform="translate(-5.99 -25)"/>
    <polygon class="cls-14" points="229.11 119.9 229.31 119.9 229.27 119.11 229.11 119.9"/>
    <path class="cls-14" d="M225.42,148.18c.88-.07.06-.54.9-.5.16-.22-.69,0-.52-.24C225.34,147.78,225,147.76,225.42,148.18Z" transform="translate(-5.99 -25)"/>
    <path class="cls-14" d="M225.8,147.44a1.88,1.88,0,0,0,.24-.18A1,1,0,0,0,225.8,147.44Z" transform="translate(-5.99 -25)"/>
    <polygon class="cls-14" points="266.65 149.71 266.93 149.09 266.6 149.46 266.65 149.71"/>
    <path class="cls-14" d="M272.3,173.37l.52-.08-.38-.44C272.44,173,272.43,173.28,272.3,173.37Z" transform="translate(-5.99 -25)"/>
    <path class="cls-14" d="M209.19,172h-.12c-.1.12-.07.24,0,.48Z" transform="translate(-5.99 -25)"/>
    <polygon class="cls-14" points="206.34 153.43 206.27 153.32 206.06 153.79 206.34 153.43"/>
    <path class="cls-14" d="M217.11,182.36c-.18-.18-.47-.29-.65-.47C216.93,182.18,216.82,182.84,217.11,182.36Z" transform="translate(-5.99 -25)"/>
  </g>
  <g>
    <path class="cls-14" d="M144.77,232.45c0,.15.14.11.17.14C144.92,232.32,144.72,232.45,144.77,232.45Z" transform="translate(-5.99 -25)"/>
    <path class="cls-14" d="M144.34,229.94l.07,0a3.15,3.15,0,0,0-.22-.33A2.1,2.1,0,0,1,144.34,229.94Z" transform="translate(-5.99 -25)"/>
    <path class="cls-14" d="M143.77,227.72c-.21.3.34.76.31,1.2L144,229l.26.13a6,6,0,0,0-.28-.77A2.14,2.14,0,0,1,143.77,227.72Z" transform="translate(-5.99 -25)"/>
    <path class="cls-14" d="M143.85,226.32c-.07.12-.21-.2.1.28v-.06Z" transform="translate(-5.99 -25)"/>
    <path class="cls-14" d="M144,226.54c.12.23,0-.19,0,0Z" transform="translate(-5.99 -25)"/>
    <path class="cls-14" d="M143.37,225.54a2.72,2.72,0,0,1,.24.24c0-.1-.1-.37,0-.3C143.38,225.22,143.36,225.32,143.37,225.54Z" transform="translate(-5.99 -25)"/>
    <path class="cls-14" d="M143,225.38l.12.12S143.14,225.42,143,225.38Z" transform="translate(-5.99 -25)"/>
    <path class="cls-14" d="M143.4,225.77a1.64,1.64,0,0,0-.26-.27c0,.07-.09.12.12.13C143.17,225.64,143.28,225.66,143.4,225.77Z" transform="translate(-5.99 -25)"/>
    <path class="cls-14" d="M143.46,226c0,.2.09.42-.14.18C143.63,226.68,143.78,226.52,143.46,226Z" transform="translate(-5.99 -25)"/>
    <path class="cls-14" d="M143.44,227.71V228l.16.16C143.52,228,143.53,227.67,143.44,227.71Z" transform="translate(-5.99 -25)"/>
    <path class="cls-14" d="M142.32,223.77c-.06,0-.06.18-.11.25l.21.15C142.38,224,142.26,223.84,142.32,223.77Z" transform="translate(-5.99 -25)"/>
    <path class="cls-14" d="M142.21,224l-.31-.21C142.09,224.06,142.17,224.08,142.21,224Z" transform="translate(-5.99 -25)"/>
    <path class="cls-14" d="M142.71,225.51a3.57,3.57,0,0,1,.49.38,4.88,4.88,0,0,0-.55-.47Z" transform="translate(-5.99 -25)"/>
    <polygon class="cls-14" points="135.43 197.72 135.68 197.77 135.26 197.66 135.43 197.72"/>
    <path class="cls-14" d="M140.76,222.08c.19,0,0-.3.15-.23a1.53,1.53,0,0,0-.63-.28A1.09,1.09,0,0,1,140.76,222.08Z" transform="translate(-5.99 -25)"/>
    <path class="cls-14" d="M140,221.47a2.17,2.17,0,0,0,.33.1A1.15,1.15,0,0,0,140,221.47Z" transform="translate(-5.99 -25)"/>
    <path class="cls-14" d="M141.55,223.32a.37.37,0,0,0-.07-.32l0,.21Z" transform="translate(-5.99 -25)"/>
    <path class="cls-14" d="M141.45,223.22h0l-.2-.22Z" transform="translate(-5.99 -25)"/>
    <path class="cls-14" d="M141.57,223.35l0,0S141.54,223.35,141.57,223.35Z" transform="translate(-5.99 -25)"/>
    <path class="cls-14" d="M142.34,224.65c-.2-.12-.55-.38-.41,0C142.11,224.72,142,224.48,142.34,224.65Z" transform="translate(-5.99 -25)"/>
    <path class="cls-14" d="M141.51,223.62l.21.32s0-.13.14-.08Z" transform="translate(-5.99 -25)"/>
    <polygon class="cls-14" points="135.37 198.52 135.52 198.63 135.44 198.51 135.37 198.52"/>
    <path class="cls-14" d="M140.33,222a1.54,1.54,0,0,1-.47-.28,4,4,0,0,0,.46.46C140.38,222.17,140.51,222.15,140.33,222Z" transform="translate(-5.99 -25)"/>
    <path class="cls-14" d="M140.87,222.6l0,0S140.86,222.63,140.87,222.6Z" transform="translate(-5.99 -25)"/>
    <polygon class="cls-14" points="132.32 195.54 132.32 195.59 132.35 195.57 132.32 195.54"/>
    <path class="cls-14" d="M140.32,222.23a.43.43,0,0,0,.29.2c-.1-.07-.19-.16-.29-.24S140.28,222.21,140.32,222.23Z" transform="translate(-5.99 -25)"/>
    <path class="cls-14" d="M139.47,221.17l.16.26C139.6,221.33,139.52,221.16,139.47,221.17Z" transform="translate(-5.99 -25)"/>
    <path class="cls-14" d="M140.84,222.51h0C140.85,222.46,140.84,222.48,140.84,222.51Z" transform="translate(-5.99 -25)"/>
    <path class="cls-14" d="M140.84,222.51a1,1,0,0,0-.23-.08,1.28,1.28,0,0,0,.23.15Z" transform="translate(-5.99 -25)"/>
    <path class="cls-14" d="M137.21,221.14c.12-.13.53,0,.71.33.35.09.48-.46.39-.89,0,0-.08.11-.43,0,.06.14.54.63.2.57s-.28-.27-.42-.47c.06.26-.67-.06-.74.24l.41.12S137.14,221.05,137.21,221.14Z" transform="translate(-5.99 -25)"/>
    <path class="cls-14" d="M138.88,221l.13.07a1.66,1.66,0,0,1-.3-.48c-.25-.08-.33-.06-.37,0l.59.45Z" transform="translate(-5.99 -25)"/>
    <path class="cls-14" d="M139.54,221.5c-.2.05-.52-.12-.47.17.34.27.33.09.58.2-.57-.43.22.06-.12-.35a2.08,2.08,0,0,1,.33.21l-.23-.3v0h0s0,.05,0,0h0l-.07,0c-.13-.17,0-.06.07,0s0,0,0,0h0a6.41,6.41,0,0,0-.62-.38A6.43,6.43,0,0,0,139.54,221.5Z" transform="translate(-5.99 -25)"/>
    <path class="cls-14" d="M141.39,224.62s0,0,0,0S141.34,224.55,141.39,224.62Z" transform="translate(-5.99 -25)"/>
    <path class="cls-14" d="M141.3,224.33s.13,0,.22.15-.07.05-.11.1.32.19.19-.11l0,0c-.13-.25-.19-.68-.14-.66A1.24,1.24,0,0,0,141.3,224.33Z" transform="translate(-5.99 -25)"/>
    <path class="cls-14" d="M140.46,222.9c-.16-.12-.31-.24-.48-.35a1.73,1.73,0,0,1,.11.32l0-.08C140.35,223.05,140.38,222.92,140.46,222.9Z" transform="translate(-5.99 -25)"/>
    <polygon class="cls-14" points="132.31 195.43 132.48 195.32 132.05 195.34 132.31 195.43"/>
    <polygon class="cls-14" points="131.65 195.02 131.76 194.9 131.53 194.88 131.65 195.02"/>
    <path class="cls-14" d="M112.19,235.36l.13.09Z" transform="translate(-5.99 -25)"/>
    <path class="cls-14" d="M111.57,234.43l-.08,0C111.55,234.47,111.59,234.47,111.57,234.43Z" transform="translate(-5.99 -25)"/>
    <path class="cls-14" d="M119.37,217.31c-.29-.08-.63-.21-.55-.05l.12.15A.83.83,0,0,1,119.37,217.31Z" transform="translate(-5.99 -25)"/>
    <path class="cls-14" d="M110,225.5l.08,0-.08-.22Z" transform="translate(-5.99 -25)"/>
    <path class="cls-14" d="M110.62,226c-.07.08-.16.15-.22.23A2.61,2.61,0,0,0,110.62,226Z" transform="translate(-5.99 -25)"/>
    <path class="cls-14" d="M117,239.23l.25-.06C117,239,117,239.16,117,239.23Z" transform="translate(-5.99 -25)"/>
    <path class="cls-14" d="M130.3,217.18a1.67,1.67,0,0,0-.52-.22C130,217.1,130.2,217.31,130.3,217.18Z" transform="translate(-5.99 -25)"/>
    <path class="cls-14" d="M110.39,236.07c.09.08.14.1.17.07S110.41,236,110.39,236.07Z" transform="translate(-5.99 -25)"/>
    <path class="cls-14" d="M129.16,216.86l.11.06a2.33,2.33,0,0,1,.51,0A.74.74,0,0,0,129.16,216.86Z" transform="translate(-5.99 -25)"/>
    <path class="cls-14" d="M138.51,239l.05,0S138.54,239,138.51,239Z" transform="translate(-5.99 -25)"/>
    <path class="cls-14" d="M144,234.67a2.75,2.75,0,0,1-.08.3A.8.8,0,0,0,144,234.67Z" transform="translate(-5.99 -25)"/>
    <path class="cls-14" d="M134.91,218.49c.16,0,0,0,0,0Z" transform="translate(-5.99 -25)"/>
    <path class="cls-14" d="M135.33,219.47a.1.1,0,0,0-.09,0A.12.12,0,0,1,135.33,219.47Z" transform="translate(-5.99 -25)"/>
    <path class="cls-14" d="M127.44,217.75h0S127.46,217.78,127.44,217.75Z" transform="translate(-5.99 -25)"/>
    <path class="cls-14" d="M135.1,218.66a.84.84,0,0,0-.17-.13Z" transform="translate(-5.99 -25)"/>
    <path class="cls-14" d="M135.11,218.57l.12.08S135.25,218.61,135.11,218.57Z" transform="translate(-5.99 -25)"/>
    <path class="cls-14" d="M134.69,218.42a1.33,1.33,0,0,1,.24.11s0,0,0,0Z" transform="translate(-5.99 -25)"/>
    <path class="cls-14" d="M127,242.66h0C127.17,242.6,127.1,242.61,127,242.66Z" transform="translate(-5.99 -25)"/>
    <polygon class="cls-14" points="110.21 195.48 110.22 195.47 110.2 195.47 110.21 195.48"/>
    <path class="cls-14" d="M115.79,220.83a.43.43,0,0,1,.4-.36l-.4-.37Z" transform="translate(-5.99 -25)"/>
    <path class="cls-14" d="M114.05,237.31a2.43,2.43,0,0,1-.16-.37c.5.11.68.37.57,0-.44.4-1-.94-1.47-.59a2.58,2.58,0,0,1-.08-.26c0,.06.07,0,.12.1-.1-.53-.52,0-.86-.54-.1-.19-.13-.35,0-.28a4,4,0,0,1-.39-.3c-.06-.13,0-.15.1,0l-.43-.58h0a2,2,0,0,1-.48-.25c0-.2.1.05.14,0l-.3-.3c.05-.21.32,0,.43.28.32-.6-.27-.24-.34-1.08l.23.29c.17-.34,0-.54,0-1-.07.12-.18,1-.45.61a.66.66,0,0,0-.22-.46c.18-.07.06-.26,0-.52l.25-.06c-.16-.25-.26-.2-.42-.34a.5.5,0,0,1,.28-.55c-.07-.51-.23.42-.42-.18a2.66,2.66,0,0,0-.28-1.28c.11-.31.16.05.24-.06l-.2-.28c0-.06.07,0,.11,0-.07-.23-.26,0-.32-.4-.13-.07,0-.26.1-.48a.78.78,0,0,0,.17-.74c.09-.09.15.09.25.08a11.1,11.1,0,0,0-.14-1.14l.31-.37c-.29.24-.39-.25-.37-.68a3.38,3.38,0,0,0-.33.19l.15-.64c.08-.05.13,0,.18.19v-.13c.19-.16.27,0,.33.22l-.24.13c.07.21.17.4.33.44a.55.55,0,0,1,0-.21c0,.06.05.09.08.09s0-.09,0-.2h.32l-.09-.08a4.7,4.7,0,0,1,.52-.58,3.41,3.41,0,0,1,.49-2.06c0,.32.23.27.41.45-.35,0-.38.58-.66.92.15-.18.22-.06.22,0,.08-.27.21-.51.31-.78.15.15.23,0,.43-.13-.42-.17.22-.63.39-.94.1.09.14.24-.17.5.53-.08.09-.75.59-.87-.07.07-.12.1-.11.17.08-.26.62-.52.58-.35l-.07.07c.52-.4,1.65-1.15,1.57-1.5a2.62,2.62,0,0,1,.14.49,12.06,12.06,0,0,1,.52-1.61c0,.32.71.77.29,1.17a1,1,0,0,0,.61-.32c-.11,0-.43-.27-.31-.36a6,6,0,0,0,.92.11c-.18,0-.19-.5.06-.59,0,.08.19.42.12.5l.43-.66c-.12.13.11.37.29.44-.1-.06.53-.15.67-.25l-.29,0c.71-.13.5-.86,1.23-1-.06.11-.07.61.3.58.11-.25.49-1.29,1.14-1.56l.15.11.49-.22c-.28.39-1,1.25-1.41,1.65.29.05.11.14.5,0,.16.09-.18.23-.29.27a5.75,5.75,0,0,1,.93-.09c-.09-.27.66-.38.6-.6l-1,.43c-.1-.26.46-.85,1.15-.91.18.09-.07.51,0,.6a.94.94,0,0,1,.68-.19l-.27.16c.37.08.58-.4,1-.17.16,0,.48.32.5.16a1.91,1.91,0,0,1-.19-1.51,4.71,4.71,0,0,1,1,.45c.26.25-.39.58-.17.79,0-.07.15-.16.21-.19s-.06.23.29.2c.07-.28.73,0,.18-.23.35-.09.37,0,.78.08-.13-.19.41-.58.78-.63,0,.07,0,.16.08.21.73.06,1.09.3,1.77.39,0,.08.35.21.2.3a.61.61,0,0,1,.41-.07c.35.32-.46-.06-.21.28,0-.15.56-.09.87-.13,0-.25-.66-.21-1-.16.06-.35.64-.58,1.4-.57.58.05.19.27.3.25,1,.34,1.06-.31,1.86.19.27.31-.13.42-.11.59-.47-.06-.63-.35-.94-.43l.34.21a1,1,0,0,1-.62-.12,3.38,3.38,0,0,0,1,.44,6.22,6.22,0,0,1,1.37.64c.16,0,.43,0,.35-.12l-.25-.07c-.16-.25.56,0,.28-.24a2,2,0,0,1,1.23.34l0,.27c0-.07-.22-.28-.38-.28.24,0,.53.64.89.46l-.24-.31a2.17,2.17,0,0,1,1.26.35c-.06-.32-.11,0-.24-.45,0,.23-.22.08-.45-.06s-.47-.24-.35,0c-.15-.45-.45-.38-.72-.83,0,.08.07.21-.26,0a.23.23,0,0,1-.11,0l0,0,0,0s0,0,0,0a.42.42,0,0,1,.13.2c-.25.07-.8-.15-1-.14s.12-.05,0-.17l-.33,0c0-.18-.45-.51.08-.41l-.44-.19a1.57,1.57,0,0,0-.85-.35c-.21-.1-.61,0-.38-.05-.25,0-.5-.09-.76-.11v-.05a7.8,7.8,0,0,1-2.32-.52,2.51,2.51,0,0,1-.93-.09l-.06-.17c-.32,0-1-.24-1.1-.1a1.28,1.28,0,0,0-1-.29,8,8,0,0,1-1.16,0l0,.21a3.84,3.84,0,0,0-1.24.17l0,.18c-.4.19-1.07-.09-1.72,0,0-.08.2-.09.32-.06-.84-.3-1.59.52-2.34.4a.56.56,0,0,1-.42.1l0,0h-.07l-.26,0a.68.68,0,0,0,.22.05,1.84,1.84,0,0,0-.51.21l-.14-.16,0,0c-.21,0-.13.13,0,.24a1.42,1.42,0,0,0-.22.2c-.25-.26-.47.25-.79,0-.08.18-.92.49-.89.85,0,0-.08,0,0-.08a1,1,0,0,0-.6.26l-.19-.19-.29.52c-.33,0-.49,0-.31-.33-.5.61-.49.34-.86.93l0-.16c-.19.12-.37.49-.55.45-.61,0-2,1.37-3,2.15.52.12-.55.32-.3.59-.14,0-.3.09-.25-.13-.34.56-.72.73-.73,1.27-.14,0-.06-.21-.16-.18s0,.23-.13.25,0-.13,0-.25a.66.66,0,0,0,.22,1c-.29.23-.35.4-.26.7-.14.06-.34.2-.19-.19-.15.18-.63,1.31-.39,1.4-.1,0-.11.31-.09.37a10.1,10.1,0,0,0-.21,1.07l.06-.14c.27.24,0,.43,0,.84h0c-.26.94,0,.4-.14,1.34l.19-.07c.44,0-.21.85.1,1.36l.07-.21c.2.24-.39.93-.35,1.25,0,.08-.09-.08-.13-.17,0,.85.27,0,.52.57-.09.15-.38,0-.26.38,0,.11.17.36.4.62a1.43,1.43,0,0,1,.47.87c0-.16.09-.31.28-.11.2.35.25,1.17.73,1.3a.14.14,0,0,1,0,.11c.25.21.75.72,1,.75-.35.71,1.56,1.16,1.11,1.6l.76.6-.06,0a1.17,1.17,0,0,0,1,.44c.09.12,0,.1-.06.12a2,2,0,0,0,1.55.78l0,.21c.12,0,.35.23.67.5a3.29,3.29,0,0,0,1.2.59.15.15,0,0,1-.12,0,5.82,5.82,0,0,1,1.43.72c.44.27.86.42,1.15.12l.67,0c-.78-.3.21-.27-.08-.49.31.06.73.46.34.38l0-.05c-.12.16.11.27.37.37s.54.15.5.27a28.62,28.62,0,0,0,4.7.91l-.16-.31a4.91,4.91,0,0,0,.53,0c.14.07.19.23-.2.22.2.17.65-.14.66-.2.75.12-.3.34-.07.35l.32,0-.07,0c.25-.12.27-.25.73-.24.3.07.16.19.27.19s0,0,.18,0l.68,0-.28-.22c.29-.13.63,0,.3-.27.49.42,2.52-.14,2.8-.1a3.24,3.24,0,0,1,1.28-.44c-.13,0-.27-.24.16-.34,0,.57.83,0,1.3.26-.38-.12,1.17-.52.56-.68.36-.1.1.18.41.2a6.92,6.92,0,0,1,1.31-.62l.75-.3a4.25,4.25,0,0,0,.7-.43c0-.07-.23-.06-.09-.28h.69c.16-.16-.08-.46.39-.5-.08,0-.2,0-.1-.14a5,5,0,0,0,1.32-1,8.94,8.94,0,0,0,1.11-1.26c.37-.42.62-.93,1-1.37s.63-.94,1-1.41c-.23.25-.17,0-.1-.18-.08.13-.17-.07-.27-.07l.56-.81c-.19-.23.18-1,0-1.14v.3c-.23-.43-.77.39-1.13.23.14.23-.1.45-.28.69a1,1,0,0,0-.29.88c-.14.09-.07-.16-.18-.13.08.21,0,.41-.2.7l0-.06a6.37,6.37,0,0,1-1.68,1.95l.2.07a.86.86,0,0,1-.38.21c0,.19.13.08.26,0s.24-.26.28-.05c-.49,0-1.26,1.24-1.74,1-.3.22.22.1-.08.33l-.15,0,0,.18c-.22.14-.41.09-.47,0a1.29,1.29,0,0,0,.16-.17c-.32.09-.73.53-.84.56l.35-.13a7.37,7.37,0,0,1-1.42.87c-.5.28-1,.51-1.45.81l.11.06c-.67.45-.62.13-1.41.46l0,0a1.31,1.31,0,0,1-.57.31c.18-.15-.45-.1-.21-.28-.78.36-.37.23-.85.68l-.16-.12a.8.8,0,0,1-.58.37c.33-.18-.32-.19.05-.42-.94-.21-1.29.55-1.76.08-.37.46.81.17.58.27.22.1-.3.36-.6.33s-.54-.5-1.25-.45c.07,0,.07,0,.14,0-.27-.08-.53.15-.86,0-.19.25-.43,0-.49.3l.67-.07c-.37.08-.75.47-1.37.26a1.27,1.27,0,0,1,.37-.18c-.18-.1-.36.05-.54-.07.07-.3.82,0,1.22-.28-.19-.14-.76.23-.55-.12-.31.46-.7-.09-1.22.21l0-.19a1,1,0,0,1-.39.08l.28-.23c-.41.18-.74-.23-1.12-.19.78.12.15.27.47.45-1,.12-.5-.59-1.58-.66.15,0,.52.2.28.25a1.26,1.26,0,0,1-.56-.31c-.71-.12.07.22-.25.27-.2-.29-.37,0-.7,0l0-.19c-.77-.32-.32.37-1,0l.37-.17-.39-.05.14-.19a1.46,1.46,0,0,1-.94-.23c0,.16-.16.32-.52.21-.19-.2.2-.12-.3-.29.16-.07.32-.16.48.08,0-.05.15-.08.19-.13a2.09,2.09,0,0,0-.79-.33.43.43,0,0,1,.17.12l-.8,0c-.08-.11,0-.13.14-.15a3.9,3.9,0,0,1-.5-.06c.12-.12.18-.28.49-.23a5.55,5.55,0,0,1-.71-.13c0-.08-.24-.33-.14-.34-.3-.26-1-.14-1.38-.53a.42.42,0,0,1-.21,0c-.41-.27-.65-.67-1.24-.83l-.1-.42c-.4-.21.15.54-.53.19-.47-.27,0-.32-.09-.5-.28-.06-.85-.12-1-.63C113.85,237.11,113.92,237.23,114.05,237.31ZM110.73,233c.06.09.29.22.21.33C110.69,233.32,110.73,233.19,110.73,233Zm0-8.09c0,.11-.06.21-.19.3A.72.72,0,0,1,110.74,224.91ZM133.18,218h0C132.93,217.84,133,217.9,133.18,218Zm.49.27c.06,0,.06,0,.05-.07s-.17,0-.3-.07C133.44,218.18,133.5,218.24,133.67,218.26Zm-5,25.72-.11,0C128.79,243.86,128.73,243.92,128.66,244Z" transform="translate(-5.99 -25)"/>
    <path class="cls-14" d="M110.55,225.9h-.11S110.48,226,110.55,225.9Z" transform="translate(-5.99 -25)"/>
    <path class="cls-14" d="M116.91,239.24h0l0,0Z" transform="translate(-5.99 -25)"/>
    <path class="cls-14" d="M125.33,218.42a.45.45,0,0,1-.21-.11C125.12,218.36,125.17,218.4,125.33,218.42Z" transform="translate(-5.99 -25)"/>
    <path class="cls-14" d="M136.49,219.16l-.35-.12a.66.66,0,0,1,.26.2S136.39,219.11,136.49,219.16Z" transform="translate(-5.99 -25)"/>
    <path class="cls-14" d="M138.39,221.81c.06,0,.09.06.15.07l0-.08C138.4,221.68,138.24,221.65,138.39,221.81Z" transform="translate(-5.99 -25)"/>
    <path class="cls-14" d="M136.46,219.89c-.05.16.16.22.39.32l0,0C137,220,136.72,220,136.46,219.89Z" transform="translate(-5.99 -25)"/>
    <path class="cls-14" d="M136.9,220.23a1.18,1.18,0,0,1,.19.11C137.17,220.28,137,220.28,136.9,220.23Z" transform="translate(-5.99 -25)"/>
    <path class="cls-14" d="M134.36,218.42c.09.08.15-.17.18-.08C134.74,218.19,133.71,218.28,134.36,218.42Z" transform="translate(-5.99 -25)"/>
    <polygon class="cls-14" points="130.37 195.47 130.4 195.25 130.21 195.32 130.37 195.47"/>
    <path class="cls-14" d="M134.76,219.47l.32.22s.06,0,.12,0C135,219.57,134.77,219.41,134.76,219.47Z" transform="translate(-5.99 -25)"/>
    <path class="cls-14" d="M135.2,219.67a.7.7,0,0,0,.29.11Z" transform="translate(-5.99 -25)"/>
    <polygon class="cls-14" points="129.89 195.27 129.81 195.18 129.58 195.05 129.89 195.27"/>
    <path class="cls-14" d="M130.88,218.11l-.42,0c-.06,0,0,.12.2.13S130.93,218.19,130.88,218.11Z" transform="translate(-5.99 -25)"/>
    <path class="cls-14" d="M131.94,219c-.1-.07-.09-.12-.13-.2l-.09.24Z" transform="translate(-5.99 -25)"/>
    <path class="cls-14" d="M130.78,218.72c-.06.06-.62.07-.12.17C130.71,218.83,131.13,218.86,130.78,218.72Z" transform="translate(-5.99 -25)"/>
    <polygon class="cls-14" points="118.7 192.72 118.81 192.72 118.79 192.31 118.7 192.72"/>
    <path class="cls-14" d="M119.56,219.46c.47,0,0-.29.48-.27.08-.12-.37,0-.28-.13C119.52,219.24,119.36,219.24,119.56,219.46Z" transform="translate(-5.99 -25)"/>
    <path class="cls-14" d="M119.76,219.06a.51.51,0,0,0,.13-.09Z" transform="translate(-5.99 -25)"/>
    <polygon class="cls-14" points="138.6 208.52 138.75 208.19 138.57 208.39 138.6 208.52"/>
    <path class="cls-14" d="M144.41,232.81l.27,0-.2-.23C144.48,232.61,144.48,232.76,144.41,232.81Z" transform="translate(-5.99 -25)"/>
    <path class="cls-14" d="M111,232.08h-.07c0,.06,0,.12,0,.25Z" transform="translate(-5.99 -25)"/>
    <polygon class="cls-14" points="106.63 210.49 106.59 210.44 106.49 210.68 106.63 210.49"/>
    <path class="cls-14" d="M115.16,237.57c-.1-.09-.25-.15-.35-.25C115.06,237.48,115,237.83,115.16,237.57Z" transform="translate(-5.99 -25)"/>
  </g>
</svg>
