<svg id="Layer_1" data-name="Layer 1" xmlns="http://www.w3.org/2000/svg" width="478.95" height="244.09" viewBox="0 0 478.95 244.09">
  <defs>
    <style>
      .cls-1 {
        fill: #f9f9f9;
        stroke: #e8e8e8;
        stroke-miterlimit: 10;
      }

      .cls-1, .cls-26 {
        stroke-width: 2.06px;
      }

      .cls-2 {
        fill: #fdff79;
      }

      .cls-3 {
        fill: #fffdb3;
      }

      .cls-4 {
        fill: #fffb05;
      }

      .cls-5 {
        fill: #f9e800;
      }

      .cls-6 {
        fill: #dfd500;
      }

      .cls-7 {
        fill: #ffe47f;
      }

      .cls-8 {
        fill: #ffeda8;
      }

      .cls-9 {
        fill: #ffc64b;
      }

      .cls-10 {
        fill: #ff970b;
      }

      .cls-11 {
        fill: #e27b00;
      }

      .cls-12 {
        fill: #ffa68d;
      }

      .cls-13 {
        fill: #ffceb6;
      }

      .cls-14 {
        fill: #ff7e59;
      }

      .cls-15 {
        fill: #ff6931;
      }

      .cls-16 {
        fill: #e44400;
      }

      .cls-17 {
        fill: #846a5b;
      }

      .cls-18 {
        fill: #a58772;
      }

      .cls-19 {
        fill: #b79a83;
      }

      .cls-20 {
        fill: #c6a88b;
      }

      .cls-21 {
        fill: #d3b89b;
      }

      .cls-22 {
        fill: #eacfa9;
      }

      .cls-23 {
        fill: #ffebc7;
      }

      .cls-24 {
        fill: #967a68;
      }

      .cls-25, .cls-26, .cls-28 {
        fill: none;
        stroke: #6b5636;
        stroke-linecap: round;
        stroke-linejoin: round;
      }

      .cls-25 {
        stroke-width: 3.09px;
      }

      .cls-25, .cls-26 {
        opacity: 0.39;
      }

      .cls-27 {
        fill: #fff;
      }

      .cls-28 {
        stroke-width: 0.21px;
      }
    </style>
  </defs>
  <title>visual id</title>
  <polygon class="cls-1" points="311.4 155.93 432.16 126.91 475.91 146.7 353.17 179.91 311.4 155.93"/>
  <polygon class="cls-2" points="399.37 137.68 414.47 134.24 447.66 149.93 432.73 153.73 399.37 137.68"/>
  <polygon class="cls-3" points="416.74 133.26 431.84 129.82 465.89 145.17 449.83 148.57 416.74 133.26"/>
  <polygon class="cls-4" points="382.04 142.04 397.14 138.6 430.04 155.13 415.55 158.33 382.04 142.04"/>
  <polygon class="cls-5" points="364.75 146.8 379.85 143.37 413.07 159.32 398.68 162.78 364.75 146.8"/>
  <polygon class="cls-6" points="348.05 151.87 363.16 148.43 396.37 164.39 381.98 167.85 348.05 151.87"/>
  <polygon class="cls-1" points="287.93 149.27 405.4 108.94 450.83 124.49 331.79 169.18 287.93 149.27"/>
  <polygon class="cls-7" points="373.77 122.76 388.48 117.91 423.01 130.39 408.51 135.58 373.77 122.76"/>
  <polygon class="cls-8" points="390.64 116.72 405.36 111.86 440.7 123.92 425.04 128.82 390.64 116.72"/>
  <polygon class="cls-9" points="356.93 128.75 371.64 123.89 405.96 137.23 391.84 141.79 356.93 128.75"/>
  <polygon class="cls-10" points="340.17 135.13 354.88 130.28 389.46 143.01 375.46 147.82 340.17 135.13"/>
  <polygon class="cls-11" points="324.03 141.76 338.75 136.9 373.32 149.64 359.32 154.45 324.03 141.76"/>
  <polygon class="cls-1" points="265.07 155.49 374.43 96.6 421.78 104.56 311.59 168.01 265.07 155.49"/>
  <polygon class="cls-12" points="345.47 115.38 359.2 108.2 395.29 114.9 381.82 122.38 345.47 115.38"/>
  <polygon class="cls-13" points="361.13 106.67 374.86 99.49 411.69 105.65 397.04 113.03 361.13 106.67"/>
  <polygon class="cls-14" points="329.82 124.02 343.55 116.84 379.58 124.42 366.39 131.22 329.82 124.02"/>
  <polygon class="cls-15" points="314.32 133.05 328.05 125.87 364.24 132.81 351.21 139.83 314.32 133.05"/>
  <polygon class="cls-16" points="299.48 142.21 313.2 135.03 349.39 141.97 336.36 148.99 299.48 142.21"/>
  <polygon class="cls-17" points="208.99 222.44 288.61 178.59 428.07 197.78 352.17 244.09 208.99 222.44"/>
  <polygon class="cls-18" points="209.49 216.12 289.12 172.26 428.57 191.46 352.67 237.77 209.49 216.12"/>
  <polygon class="cls-19" points="209.06 210.86 288.68 167 428.13 186.19 352.24 232.5 209.06 210.86"/>
  <polygon class="cls-20" points="208.69 205.18 288.31 161.32 427.76 180.51 351.87 226.82 208.69 205.18"/>
  <polygon class="cls-21" points="208.45 199.33 288.07 155.47 427.52 174.66 351.63 220.97 208.45 199.33"/>
  <polygon class="cls-22" points="208.98 193.13 288.6 149.27 428.05 168.47 352.16 214.78 208.98 193.13"/>
  <polygon class="cls-23" points="209.04 187.28 288.67 143.43 428.12 162.62 352.23 208.93 209.04 187.28"/>
  <polygon class="cls-17" points="0.44 154.5 189.83 52.52 354.81 81.89 162.64 197.24 0.44 154.5"/>
  <polygon class="cls-24" points="0.76 145.51 190.15 43.53 355.12 72.91 162.96 188.25 0.76 145.51"/>
  <polygon class="cls-18" points="0.5 137.5 189.89 35.52 354.86 64.89 162.7 180.24 0.5 137.5"/>
  <polygon class="cls-19" points="1.03 129.65 190.43 27.66 355.4 57.04 163.23 172.38 1.03 129.65"/>
  <polygon class="cls-20" points="1.07 123.22 190.47 21.23 355.44 50.61 163.28 165.95 1.07 123.22"/>
  <polygon class="cls-21" points="1.31 116.2 190.71 14.22 355.68 43.59 163.51 158.93 1.31 116.2"/>
  <polygon class="cls-22" points="0.33 109.22 189.73 7.24 354.7 36.61 162.53 151.95 0.33 109.22"/>
  <polygon class="cls-23" points="0 101.98 189.4 0 354.37 29.38 162.2 144.72 0 101.98"/>
  <line class="cls-25" x1="193.79" y1="14.66" x2="280.92" y2="32.99"/>
  <line class="cls-26" x1="195.38" y1="23.55" x2="266.26" y2="38.53"/>
  <polygon class="cls-27" points="156.71 54.79 197.14 33.79 237.79 40.79 197.67 61 156.71 54.79"/>
  <line class="cls-28" x1="197.67" y1="61" x2="197.14" y2="33.79"/>
  <line class="cls-28" x1="156.71" y1="54.79" x2="237.79" y2="40.79"/>
</svg>
