<svg id="Layer_1" data-name="Layer 1" xmlns="http://www.w3.org/2000/svg" width="479.44" height="349.51" viewBox="0 0 479.44 349.51">
  <defs>
    <style>
      .cls-1 {
        fill: none;
        stroke: #afafaf;
      }

      .cls-1, .cls-3 {
        stroke-miterlimit: 10;
        stroke-width: 3.27px;
      }

      .cls-2 {
        fill: #afafaf;
      }

      .cls-3 {
        fill: #f9f9f9;
        stroke: #e8e8e8;
      }

      .cls-4 {
        fill: #c96;
      }

      .cls-5 {
        font-size: 7.85px;
      }

      .cls-12, .cls-5 {
        font-family: HiraKakuStd-W8-83pv-RKSJ-H, Hiragino Kaku Gothic Std;
      }

      .cls-6 {
        letter-spacing: -0.06em;
      }

      .cls-7 {
        font-size: 5.65px;
      }

      .cls-14, .cls-15, .cls-7, .cls-8 {
        font-family: MyriadPro-Bold, Myriad Pro;
        font-weight: 700;
      }

      .cls-8 {
        font-size: 6.69px;
      }

      .cls-9 {
        letter-spacing: 0em;
      }

      .cls-10 {
        letter-spacing: 0em;
      }

      .cls-11 {
        fill: #ffda4b;
      }

      .cls-12 {
        font-size: 7.85px;
        letter-spacing: -0.06em;
      }

      .cls-13 {
        letter-spacing: 0em;
      }

      .cls-14 {
        font-size: 5.65px;
      }

      .cls-15 {
        font-size: 6.69px;
      }

      .cls-16 {
        letter-spacing: 0.01em;
      }

      .cls-17 {
        fill: #9b9b9b;
        opacity: 0.3;
      }

      .cls-18 {
        fill: #d6e3f2;
      }

      .cls-19 {
        fill: #b4c5d6;
      }

      .cls-20 {
        fill: #dce9f4;
      }

      .cls-21 {
        fill: #9c9ea0;
      }
    </style>
  </defs>
  <title>marketing</title>
  <polygon class="cls-1" points="169.37 15.62 466.84 104.65 466.84 337.18 172.51 229.29 169.37 15.62"/>
  <polygon class="cls-2" points="160.12 4.98 185.72 10.67 185.72 32.48 160.12 26.32 160.12 4.98"/>
  <polygon class="cls-2" points="157.49 105.23 183.09 110.92 183.09 132.73 157.49 126.57 157.49 105.23"/>
  <polygon class="cls-2" points="303.24 45.62 328.84 51.31 328.84 73.12 303.24 66.96 303.24 45.62"/>
  <polygon class="cls-2" points="452.88 91.74 478.48 97.43 478.48 119.24 452.88 113.07 452.88 91.74"/>
  <polygon class="cls-2" points="453.83 199.13 479.44 204.82 479.44 226.63 453.83 220.47 453.83 199.13"/>
  <polygon class="cls-2" points="449.87 322.01 475.47 327.7 475.47 349.51 449.87 343.35 449.87 322.01"/>
  <polygon class="cls-2" points="295.68 266.47 323.1 273.99 321.28 293.97 295.27 285.98 295.68 266.47"/>
  <line class="cls-1" x1="314.59" y1="59.08" x2="314.59" y2="17.04"/>
  <circle class="cls-1" cx="314.65" cy="9.81" r="8.17"/>
  <rect class="cls-3" x="34.35" y="229.3" width="75.56" height="110.97" transform="translate(-165.02 42.5) rotate(-37.66)"/>
  <rect class="cls-4" x="30.93" y="240.97" width="59.2" height="56.07" transform="translate(-158.98 33.57) rotate(-38.05)"/>
  <text class="cls-5" transform="translate(56.73 258.16) rotate(-38.56)"><tspan class="cls-6">P</tspan><tspan x="5.52" y="0">ANTONE</tspan></text>
  <text class="cls-7" transform="matrix(0.8, -0.6, 0.6, 0.8, 60.75, 263.52)">16-0869</text>
  <text class="cls-8" transform="translate(65.96 269.29) rotate(-38.77)">But<tspan class="cls-9" x="10.4" y="0">t</tspan><tspan x="12.82" y="0">e</tspan><tspan class="cls-10" x="16.36" y="0">r</tspan><tspan x="18.88" y="0">um</tspan></text>
  <rect class="cls-3" x="64.33" y="192.69" width="75.56" height="110.97" transform="translate(-72.4 -21.64) rotate(-16.52)"/>
  <rect class="cls-11" x="67.38" y="201.23" width="59.2" height="56.07" transform="translate(-68.54 -22.8) rotate(-16.91)"/>
  <text class="cls-12" transform="translate(74.77 215.69) rotate(-17.42)">P<tspan class="cls-13" x="5.52" y="0">ANTONE</tspan></text>
  <text class="cls-14" transform="translate(76.84 222.33) rotate(-15.99)">11-0456</text>
  <text class="cls-15" transform="translate(79.52 229.59) rotate(-17.63)"><tspan class="cls-16">M</tspan><tspan x="5.7" y="0">imosa</tspan></text>
  <polygon class="cls-17" points="247 270.96 128.04 301.17 177.64 225.92 247 270.96"/>
  <polygon class="cls-18" points="127.14 153.81 128.04 301.17 200.82 248.37 200.82 115.13 127.14 153.81"/>
  <polyline class="cls-19" points="200.82 115.13 257.3 154.43 257.3 301.17 200.82 248.37 200.82 115.13"/>
  <polygon class="cls-20" points="257.3 154.43 316 107.91 316 238.82 257.3 301.17 257.3 154.43"/>
  <polygon class="cls-21" points="136.81 167.58 192.9 136.62 192.53 186.06 136.67 218.92 136.81 167.58"/>
  <line class="cls-19" x1="128.04" y1="301.17" x2="200.82" y2="248.36"/>
</svg>
