<svg id="heading" xmlns="http://www.w3.org/2000/svg" viewBox="0 0 376.44 438.4">
  <defs>
    <style>
      .cls-1, .cls-2 {
        fill: none;
        stroke: #000;
        stroke-linecap: round;
        stroke-linejoin: round;
        stroke-width: 12px;
      }

      .cls-2 {
        fill-rule: evenodd;
      }
    </style>
  </defs>
  <title>servHeading</title>
  <g>
    <path d="M119.91,251.22a22.7,22.7,0,0,1-7.77-1.29,14.89,14.89,0,0,1-5.55-3.27,2.61,2.61,0,0,1-.75-2.19,2.89,2.89,0,0,1,1.17-2,3.13,3.13,0,0,1,2.37-.81,3.25,3.25,0,0,1,2,1,9.52,9.52,0,0,0,3.27,2.13,12.31,12.31,0,0,0,5,1,10.12,10.12,0,0,0,5.31-1.14,3.53,3.53,0,0,0,1.89-2.94,3.67,3.67,0,0,0-1.71-3.12q-1.77-1.32-6.45-2.16-6.06-1.2-8.79-3.6a7.53,7.53,0,0,1-2.73-5.88,7.32,7.32,0,0,1,1.8-5.07,10.92,10.92,0,0,1,4.62-3,17.62,17.62,0,0,1,5.88-1,18.31,18.31,0,0,1,7,1.26,12,12,0,0,1,4.86,3.48,2.77,2.77,0,0,1,.78,2,2.32,2.32,0,0,1-1,1.77,2.94,2.94,0,0,1-2.28.42,4.3,4.3,0,0,1-2.22-1.08,8.17,8.17,0,0,0-3.24-2,13.58,13.58,0,0,0-4-.54,10.06,10.06,0,0,0-4.47.9,2.84,2.84,0,0,0-1.83,2.64,3.48,3.48,0,0,0,.57,1.95,4.8,4.8,0,0,0,2.25,1.56,28.89,28.89,0,0,0,4.92,1.35,26.76,26.76,0,0,1,7.11,2.28,9.49,9.49,0,0,1,3.75,3.21,7.83,7.83,0,0,1,1.14,4.23,8.82,8.82,0,0,1-1.47,5A10.11,10.11,0,0,1,127,249.9,16.9,16.9,0,0,1,119.91,251.22Z" transform="translate(-61.78 -30.8)"/>
    <path d="M156,251.22a18.05,18.05,0,0,1-8.85-2.13,15.57,15.57,0,0,1-6.06-5.88,16.76,16.76,0,0,1-2.19-8.61,17.65,17.65,0,0,1,2.07-8.67,15.14,15.14,0,0,1,5.73-5.88,16.39,16.39,0,0,1,8.4-2.13,15,15,0,0,1,8,2.07,13.49,13.49,0,0,1,5.13,5.7,18.87,18.87,0,0,1,1.77,8.37,2.51,2.51,0,0,1-.78,1.89,2.74,2.74,0,0,1-2,.75H143.07v-4.8h24l-2.46,1.68a12.84,12.84,0,0,0-1.2-5.37,8.75,8.75,0,0,0-8.34-5.13,10.92,10.92,0,0,0-5.85,1.5,9.66,9.66,0,0,0-3.69,4.11,13.42,13.42,0,0,0-1.26,5.91,11.48,11.48,0,0,0,1.5,5.88,11,11,0,0,0,4.14,4.08,12.05,12.05,0,0,0,6.06,1.5,11.38,11.38,0,0,0,3.81-.69,11.84,11.84,0,0,0,3.15-1.59,3.4,3.4,0,0,1,1.95-.69,2.62,2.62,0,0,1,1.83.63,2.84,2.84,0,0,1,1.08,2,2.13,2.13,0,0,1-1,1.86,16.59,16.59,0,0,1-5.07,2.64A18.14,18.14,0,0,1,156,251.22Z" transform="translate(-61.78 -30.8)"/>
    <path d="M180.81,251a3.07,3.07,0,0,1-2.22-.75,3,3,0,0,1-.78-2.25V221.16a2.72,2.72,0,0,1,3-3,2.65,2.65,0,0,1,3,3V248a3.07,3.07,0,0,1-.75,2.22A3,3,0,0,1,180.81,251Zm-.06-20.52a12,12,0,0,1,1.77-6.45,13,13,0,0,1,4.77-4.53,13.28,13.28,0,0,1,6.6-1.68,9.86,9.86,0,0,1,5.37,1.17,2.47,2.47,0,0,1,1.35,2.79,2.3,2.3,0,0,1-.69,1.29,2.38,2.38,0,0,1-1.17.57,3.55,3.55,0,0,1-1.44-.06,16.82,16.82,0,0,0-6.9-.12,9.34,9.34,0,0,0-4.83,2.46,6.24,6.24,0,0,0-1.77,4.56Z" transform="translate(-61.78 -30.8)"/>
    <path d="M218.07,250.92a3.15,3.15,0,0,1-2.88-2l-12.72-26.82a2.44,2.44,0,0,1-.09-2,2.86,2.86,0,0,1,1.53-1.53,2.51,2.51,0,0,1,2.07-.18,2.77,2.77,0,0,1,1.59,1.38l11.88,25.62h-2.88l11.76-25.62A2.76,2.76,0,0,1,230,218.4a3,3,0,0,1,2.25.18,2.53,2.53,0,0,1,1.44,1.5,2.59,2.59,0,0,1-.12,2l-12.72,26.82A2.92,2.92,0,0,1,218.07,250.92Z" transform="translate(-61.78 -30.8)"/>
    <path d="M243.51,212.82a4,4,0,1,1,2.79-1.17A3.81,3.81,0,0,1,243.51,212.82Zm0,38.16a3,3,0,0,1-3.06-3.06v-26.7a2.94,2.94,0,0,1,.87-2.22,3,3,0,0,1,5.25,2.22v26.7a3,3,0,0,1-.84,2.19A2.94,2.94,0,0,1,243.51,251Z" transform="translate(-61.78 -30.8)"/>
    <path d="M272.84,251.22a16.64,16.64,0,0,1-8.55-2.19,15.81,15.81,0,0,1-5.88-5.94,16.88,16.88,0,0,1-2.13-8.49,17.49,17.49,0,0,1,2.1-8.64,15.29,15.29,0,0,1,5.76-5.91,16.39,16.39,0,0,1,8.4-2.13,15.34,15.34,0,0,1,6.48,1.35,15.58,15.58,0,0,1,5.28,4,2.16,2.16,0,0,1,.6,2,3.13,3.13,0,0,1-1.32,1.8,2.28,2.28,0,0,1-1.86.39,3.66,3.66,0,0,1-1.86-1.05,9.65,9.65,0,0,0-7.32-3.12,10.26,10.26,0,0,0-5.4,1.41,9.78,9.78,0,0,0-3.66,3.93,12.63,12.63,0,0,0-1.32,5.94,12,12,0,0,0,1.35,5.76,10.29,10.29,0,0,0,3.75,4,10.47,10.47,0,0,0,5.58,1.47,12.1,12.1,0,0,0,3.69-.51,8.81,8.81,0,0,0,2.91-1.59,3.64,3.64,0,0,1,2-.87,2.36,2.36,0,0,1,1.8.57,2.87,2.87,0,0,1,1.14,1.89,2.22,2.22,0,0,1-.72,1.89A15.24,15.24,0,0,1,272.84,251.22Z" transform="translate(-61.78 -30.8)"/>
    <path d="M309.45,251.22a18.06,18.06,0,0,1-8.86-2.13,15.55,15.55,0,0,1-6-5.88,16.66,16.66,0,0,1-2.2-8.61,17.65,17.65,0,0,1,2.08-8.67,15.11,15.11,0,0,1,5.72-5.88,16.39,16.39,0,0,1,8.4-2.13,15,15,0,0,1,8,2.07,13.43,13.43,0,0,1,5.13,5.7,18.87,18.87,0,0,1,1.78,8.37,2.55,2.55,0,0,1-.78,1.89,2.78,2.78,0,0,1-2,.75H296.54v-4.8h24l-2.46,1.68a12.84,12.84,0,0,0-1.2-5.37,8.75,8.75,0,0,0-8.34-5.13,10.89,10.89,0,0,0-5.84,1.5,9.69,9.69,0,0,0-3.7,4.11,13.56,13.56,0,0,0-1.25,5.91,11.48,11.48,0,0,0,1.5,5.88,10.86,10.86,0,0,0,4.13,4.08,12.09,12.09,0,0,0,6.07,1.5,11.33,11.33,0,0,0,3.8-.69,12.07,12.07,0,0,0,3.16-1.59,3.35,3.35,0,0,1,1.95-.69,2.6,2.6,0,0,1,1.82.63,2.84,2.84,0,0,1,1.08,2,2.13,2.13,0,0,1-1,1.86,16.65,16.65,0,0,1-5.06,2.64A18.23,18.23,0,0,1,309.45,251.22Z" transform="translate(-61.78 -30.8)"/>
    <path d="M343.22,251.22a22.7,22.7,0,0,1-7.77-1.29,14.89,14.89,0,0,1-5.55-3.27,2.61,2.61,0,0,1-.75-2.19,2.89,2.89,0,0,1,1.17-2,3.13,3.13,0,0,1,2.37-.81,3.25,3.25,0,0,1,2,1,9.52,9.52,0,0,0,3.27,2.13,12.31,12.31,0,0,0,5,1,10.12,10.12,0,0,0,5.31-1.14,3.53,3.53,0,0,0,1.89-2.94,3.67,3.67,0,0,0-1.71-3.12q-1.77-1.32-6.45-2.16-6.06-1.2-8.79-3.6A7.53,7.53,0,0,1,330.5,227a7.32,7.32,0,0,1,1.8-5.07,10.92,10.92,0,0,1,4.62-3,17.62,17.62,0,0,1,5.88-1,18.31,18.31,0,0,1,7,1.26,12,12,0,0,1,4.86,3.48,2.77,2.77,0,0,1,.78,2,2.32,2.32,0,0,1-1,1.77,2.94,2.94,0,0,1-2.28.42,4.3,4.3,0,0,1-2.22-1.08,8.17,8.17,0,0,0-3.24-2,13.58,13.58,0,0,0-4-.54,10.06,10.06,0,0,0-4.47.9,2.84,2.84,0,0,0-1.83,2.64,3.48,3.48,0,0,0,.57,1.95,4.8,4.8,0,0,0,2.25,1.56,28.89,28.89,0,0,0,4.92,1.35,26.76,26.76,0,0,1,7.11,2.28,9.49,9.49,0,0,1,3.75,3.21,7.83,7.83,0,0,1,1.14,4.23,8.82,8.82,0,0,1-1.47,5,10.11,10.11,0,0,1-4.32,3.54A16.9,16.9,0,0,1,343.22,251.22Z" transform="translate(-61.78 -30.8)"/>
  </g>
  <line class="cls-1" x1="301.8" y1="244.09" x2="11.49" y2="245.37"/>
  <path class="cls-2" d="M156.34,463C97.45,422.67,55.91,347.47,70.84,262.34,87.11,169.49,124.12,79.68,182.94,40M315.27,36.8c60.72,37,98.44,126.1,114.47,225.54C443,344.68,401.56,422,342.57,463.2" transform="translate(-61.78 -30.8)"/>
</svg>
