<svg id="heading" xmlns="http://www.w3.org/2000/svg" viewBox="0 0 376.44 438.4">
  <defs>
    <style>
      .cls-1, .cls-2 {
        fill: none;
        stroke: #000;
        stroke-linecap: round;
        stroke-linejoin: round;
        stroke-width: 12px;
      }

      .cls-2 {
        fill-rule: evenodd;
      }
    </style>
  </defs>
  <title>teamHeading</title>
  <g>
    <path d="M106.59,224.52a2.89,2.89,0,0,1-2-.72,2.35,2.35,0,0,1-.78-1.8,2.49,2.49,0,0,1,.78-1.92,2.89,2.89,0,0,1,2-.72h13.86a2.89,2.89,0,0,1,2,.72,2.49,2.49,0,0,1,.78,1.92,2.35,2.35,0,0,1-.78,1.8,2.89,2.89,0,0,1-2,.72ZM119.91,251a9.83,9.83,0,0,1-5.4-1.53,10.74,10.74,0,0,1-3.78-4.17,12.63,12.63,0,0,1-1.38-5.94V210.72a3,3,0,1,1,6,0v28.62a6.16,6.16,0,0,0,1.32,4,4,4,0,0,0,3.24,1.62h2a2.36,2.36,0,0,1,1.83.84,3.12,3.12,0,0,1,.75,2.16,2.7,2.7,0,0,1-1,2.16A3.8,3.8,0,0,1,121,251Z" transform="translate(-61.78 -30.8)"/>
    <path d="M147.45,251.22a18.05,18.05,0,0,1-8.85-2.13,15.57,15.57,0,0,1-6.06-5.88,16.76,16.76,0,0,1-2.19-8.61,17.65,17.65,0,0,1,2.07-8.67,15.14,15.14,0,0,1,5.73-5.88,16.39,16.39,0,0,1,8.4-2.13,15,15,0,0,1,8,2.07,13.49,13.49,0,0,1,5.13,5.7,18.87,18.87,0,0,1,1.77,8.37,2.51,2.51,0,0,1-.78,1.89,2.74,2.74,0,0,1-2,.75H134.55v-4.8h24l-2.46,1.68a12.84,12.84,0,0,0-1.2-5.37,8.75,8.75,0,0,0-8.34-5.13,10.92,10.92,0,0,0-5.85,1.5,9.66,9.66,0,0,0-3.69,4.11,13.42,13.42,0,0,0-1.26,5.91,11.48,11.48,0,0,0,1.5,5.88,11,11,0,0,0,4.14,4.08,12.05,12.05,0,0,0,6.06,1.5,11.38,11.38,0,0,0,3.81-.69,11.84,11.84,0,0,0,3.15-1.59,3.4,3.4,0,0,1,2-.69,2.62,2.62,0,0,1,1.83.63,2.84,2.84,0,0,1,1.08,2,2.13,2.13,0,0,1-1,1.86,16.59,16.59,0,0,1-5.07,2.64A18.14,18.14,0,0,1,147.45,251.22Z" transform="translate(-61.78 -30.8)"/>
    <path d="M181.77,251.22a14.45,14.45,0,0,1-7.86-2.19,15.56,15.56,0,0,1-5.49-5.94,17.69,17.69,0,0,1-2-8.49,16.68,16.68,0,0,1,2.19-8.52,16.2,16.2,0,0,1,5.94-6,16.54,16.54,0,0,1,22.74,6,16.68,16.68,0,0,1,2.19,8.52h-2.34a17.69,17.69,0,0,1-2,8.49,15.56,15.56,0,0,1-5.49,5.94A14.45,14.45,0,0,1,181.77,251.22Zm1.2-5.4a10.24,10.24,0,0,0,5.46-1.47,10.45,10.45,0,0,0,3.78-4,11.84,11.84,0,0,0,1.38-5.73,12,12,0,0,0-1.38-5.79,10.45,10.45,0,0,0-3.78-4,10.82,10.82,0,0,0-10.89,0,10.6,10.6,0,0,0-3.84,4,11.76,11.76,0,0,0-1.41,5.79,11.64,11.64,0,0,0,1.41,5.73,10.6,10.6,0,0,0,3.84,4A10.29,10.29,0,0,0,183,245.82ZM196.41,251a3,3,0,0,1-3.06-3.06V238.8l1.14-6.36,5,2.16V248a3,3,0,0,1-3.06,3.06Z" transform="translate(-61.78 -30.8)"/>
    <path d="M211.65,251a3,3,0,0,1-3.06-3.06v-26.7a2.94,2.94,0,0,1,.87-2.22,3,3,0,0,1,5.25,2.22V248a3,3,0,0,1-.84,2.19A2.94,2.94,0,0,1,211.65,251Zm20,0a3,3,0,0,1-3.06-3.06V230.82q0-3.78-1.86-5.61a6.63,6.63,0,0,0-4.86-1.83,6.79,6.79,0,0,0-5.16,2.16,7.72,7.72,0,0,0-2,5.52h-3.78a14.56,14.56,0,0,1,1.56-6.87,11.68,11.68,0,0,1,4.32-4.65,11.87,11.87,0,0,1,6.3-1.68,12.05,12.05,0,0,1,6.06,1.5,10.22,10.22,0,0,1,4.11,4.41,15.5,15.5,0,0,1,1.47,7V248a3,3,0,0,1-.84,2.19A2.94,2.94,0,0,1,231.69,251Zm20,0a3,3,0,0,1-3.06-3.06V230.82q0-3.78-1.86-5.61a7.26,7.26,0,0,0-10,.33,7.78,7.78,0,0,0-2,5.52h-5a13.71,13.71,0,0,1,1.68-6.87,12,12,0,0,1,4.71-4.65,14.05,14.05,0,0,1,6.93-1.68,12.05,12.05,0,0,1,6.06,1.5,10.22,10.22,0,0,1,4.11,4.41,15.5,15.5,0,0,1,1.47,7V248a3,3,0,0,1-.84,2.19A3,3,0,0,1,251.67,251Z" transform="translate(-61.78 -30.8)"/>
  </g>
  <line class="cls-1" x1="301.8" y1="244.09" x2="11.49" y2="245.37"/>
  <path class="cls-2" d="M156.34,463C97.45,422.67,55.91,347.47,70.84,262.34,87.11,169.49,124.12,79.68,182.94,40M315.27,36.8c60.72,37,98.44,126.1,114.47,225.54C443,344.68,401.56,422,342.57,463.2" transform="translate(-61.78 -30.8)"/>
</svg>
