<svg id="Layer_1" data-name="Layer 1" xmlns="http://www.w3.org/2000/svg" width="443.71" height="352.63" viewBox="0 0 443.71 352.63">
  <defs>
    <style>
      .cls-1 {
        fill: #969696;
      }

      .cls-2 {
        fill: #282828;
      }

      .cls-3 {
        fill: #a3e5ef;
      }

      .cls-4 {
        fill: #5aacba;
      }

      .cls-5 {
        fill: #4da4b2;
      }

      .cls-6 {
        fill: #3e5b60;
      }

      .cls-7 {
        fill: #0a4b56;
      }

      .cls-8 {
        fill: #85b9c1;
      }

      .cls-9 {
        fill: #00dbff;
      }

      .cls-10 {
        fill: #86e7f7;
      }

      .cls-11 {
        fill: #ede9a4;
      }

      .cls-12 {
        fill: #dddd28;
      }

      .cls-13 {
        fill: #ad8d28;
      }

      .cls-14 {
        fill: #afba1a;
      }

      .cls-15 {
        fill: #f2f2b8;
      }

      .cls-16 {
        fill: #f4f411;
      }

      .cls-17 {
        fill: #f4f06c;
      }

      .cls-18 {
        fill: #f4cd87;
      }

      .cls-19 {
        fill: #edc6a4;
      }

      .cls-20 {
        fill: #b7795a;
      }

      .cls-21 {
        fill: #ef7a2b;
      }

      .cls-22 {
        fill: #d69f18;
      }

      .cls-23 {
        fill: #ffbc00;
      }

      .cls-24 {
        fill: #d68e0d;
      }

      .cls-25 {
        fill: #b7a418;
      }

      .cls-26 {
        fill: #d3920f;
      }

      .cls-27 {
        fill: #c7a4ed;
      }

      .cls-28 {
        fill: #975ab7;
      }

      .cls-29 {
        fill: #9c4eaf;
      }

      .cls-30 {
        fill: #620edb;
      }

      .cls-31 {
        fill: #460a54;
      }

      .cls-32 {
        fill: #8e0bf4;
      }

      .cls-33 {
        fill: #2a0d3a;
      }

      .cls-34 {
        fill: #be87f4;
      }

      .cls-35 {
        fill: #eda4d3;
      }

      .cls-36 {
        fill: #7c0547;
      }

      .cls-37 {
        fill: #ef0660;
      }

      .cls-38 {
        fill: #cd00ff;
      }

      .cls-39 {
        fill: #5e0630;
      }

      .cls-40 {
        fill: #d12c8f;
      }

      .cls-41 {
        fill: red;
      }

      .cls-42 {
        fill: #dd1b1b;
      }

      .cls-43 {
        fill: #00ffec;
      }

      .cls-44 {
        fill: #11acbc;
      }

      .cls-45 {
        fill: #4eafaf;
      }

      .cls-46 {
        fill: #08b795;
      }

      .cls-47 {
        fill: #abeda4;
      }

      .cls-48 {
        fill: #5ab77b;
      }

      .cls-49 {
        fill: #54ea15;
      }

      .cls-50 {
        fill: #3d5e40;
      }

      .cls-51 {
        fill: #0f962f;
      }

      .cls-52 {
        fill: #79ba13;
      }

      .cls-53 {
        fill: #0dff00;
      }

      .cls-54 {
        fill: #9af487;
      }

      .cls-55 {
        fill: none;
        stroke: #fff;
        stroke-miterlimit: 10;
        stroke-width: 4.24px;
      }

      .cls-56 {
        fill: #111;
      }

      .cls-57 {
        fill: #6d6d6d;
      }

      .cls-58 {
        fill: #545454;
      }

      .cls-59 {
        fill: #262626;
      }

      .cls-60 {
        fill: #cecece;
      }

      .cls-61 {
        fill: #9b9b9b;
        opacity: 0.3;
      }

      .cls-62 {
        fill: #606060;
      }

      .cls-63 {
        fill: #444;
      }

      .cls-64 {
        fill: #303030;
      }

      .cls-65 {
        fill: #232323;
      }

      .cls-66 {
        fill: #5b5b5b;
      }

      .cls-67 {
        fill: #191919;
      }
    </style>
  </defs>
  <title>art</title>
  <rect class="cls-1" x="58.93" y="149.6" width="189.49" height="194.43" transform="translate(-97.64 -20.63) rotate(-15.89)"/>
  <rect class="cls-2" x="36.62" y="152.67" width="189.82" height="31.5" transform="translate(-77.02 -29.69) rotate(-15.89)"/>
  <rect class="cls-3" x="58.75" y="209.79" width="18.18" height="18.18" transform="translate(-93.27 -45.2) rotate(-15.89)"/>
  <rect class="cls-4" x="78.81" y="203.94" width="18.18" height="18.18" transform="translate(-90.9 -39.93) rotate(-15.89)"/>
  <rect class="cls-5" x="98.59" y="198.17" width="18.18" height="18.18" transform="translate(-88.57 -34.73) rotate(-15.89)"/>
  <rect class="cls-6" x="118.15" y="192.74" width="18.18" height="18.18" transform="matrix(0.96, -0.27, 0.27, 0.96, -86.33, -29.58)"/>
  <rect class="cls-7" x="137.73" y="187.17" width="18.18" height="18.18" transform="translate(-84.06 -24.44) rotate(-15.89)"/>
  <rect class="cls-8" x="157.32" y="181.49" width="18.18" height="18.18" transform="translate(-81.76 -19.29) rotate(-15.89)"/>
  <rect class="cls-9" x="176.91" y="175.72" width="18.18" height="18.18" transform="translate(-79.43 -14.15) rotate(-15.89)"/>
  <rect class="cls-10" x="196.6" y="169.99" width="18.18" height="18.18" transform="translate(-77.1 -8.97) rotate(-15.89)"/>
  <rect class="cls-11" x="64.48" y="229.74" width="18.18" height="18.18" transform="translate(-98.52 -42.87) rotate(-15.89)"/>
  <rect class="cls-12" x="84.53" y="223.89" width="18.18" height="18.18" transform="translate(-96.15 -37.6) rotate(-15.89)"/>
  <rect class="cls-13" x="104.32" y="218.12" width="18.18" height="18.18" transform="translate(-93.81 -32.4) rotate(-15.89)"/>
  <rect class="cls-14" x="123.88" y="212.69" width="18.18" height="18.18" transform="translate(-91.58 -27.25) rotate(-15.89)"/>
  <rect class="cls-15" x="143.46" y="207.12" width="18.18" height="18.18" transform="translate(-89.3 -22.11) rotate(-15.89)"/>
  <rect class="cls-16" x="163.04" y="201.44" width="18.18" height="18.18" transform="translate(-87 -16.96) rotate(-15.89)"/>
  <rect class="cls-17" x="182.64" y="195.68" width="18.18" height="18.18" transform="matrix(0.96, -0.27, 0.27, 0.96, -84.67, -11.81)"/>
  <rect class="cls-18" x="202.33" y="189.94" width="18.18" height="18.18" transform="matrix(0.96, -0.27, 0.27, 0.96, -82.35, -6.64)"/>
  <rect class="cls-19" x="70.06" y="249.8" width="18.18" height="18.18" transform="matrix(0.96, -0.27, 0.27, 0.96, -103.8, -40.57)"/>
  <rect class="cls-20" x="90.11" y="243.96" width="18.18" height="18.18" transform="translate(-101.43 -35.3) rotate(-15.89)"/>
  <rect class="cls-21" x="109.9" y="238.18" width="18.18" height="18.18" transform="translate(-99.09 -30.11) rotate(-15.89)"/>
  <rect class="cls-22" x="129.46" y="232.75" width="18.18" height="18.18" transform="translate(-96.86 -24.96) rotate(-15.89)"/>
  <rect class="cls-23" x="149.04" y="227.18" width="18.18" height="18.18" transform="translate(-94.58 -19.81) rotate(-15.89)"/>
  <rect class="cls-24" x="168.62" y="221.51" width="18.18" height="18.18" transform="translate(-92.28 -14.66) rotate(-15.89)"/>
  <rect class="cls-25" x="188.22" y="215.74" width="18.18" height="18.18" transform="translate(-89.95 -9.52) rotate(-15.89)"/>
  <rect class="cls-26" x="207.91" y="210" width="18.18" height="18.18" transform="translate(-87.63 -4.35) rotate(-15.89)"/>
  <rect class="cls-27" x="76.08" y="270.47" width="18.18" height="18.18" transform="translate(-109.22 -38.13) rotate(-15.89)"/>
  <rect class="cls-28" x="96.14" y="264.62" width="18.18" height="18.18" transform="matrix(0.96, -0.27, 0.27, 0.96, -106.86, -32.87)"/>
  <rect class="cls-29" x="115.92" y="258.85" width="18.18" height="18.18" transform="translate(-104.52 -27.67) rotate(-15.89)"/>
  <rect class="cls-30" x="135.48" y="253.41" width="18.18" height="18.18" transform="matrix(0.96, -0.27, 0.27, 0.96, -102.28, -22.52)"/>
  <rect class="cls-31" x="155.06" y="247.85" width="18.18" height="18.18" transform="translate(-100.01 -17.37) rotate(-15.89)"/>
  <rect class="cls-32" x="174.65" y="242.17" width="18.18" height="18.18" transform="matrix(0.96, -0.27, 0.27, 0.96, -97.71, -12.23)"/>
  <rect class="cls-33" x="194.24" y="236.4" width="18.18" height="18.18" transform="matrix(0.96, -0.27, 0.27, 0.96, -95.38, -7.08)"/>
  <rect class="cls-34" x="213.93" y="230.67" width="18.18" height="18.18" transform="translate(-93.06 -1.91) rotate(-15.89)"/>
  <rect class="cls-35" x="82.18" y="291.88" width="18.18" height="18.18" transform="translate(-114.85 -35.65) rotate(-15.89)"/>
  <rect class="cls-36" x="102.23" y="286.03" width="18.18" height="18.18" transform="translate(-112.49 -30.38) rotate(-15.89)"/>
  <rect class="cls-37" x="122.02" y="280.26" width="18.18" height="18.18" transform="translate(-110.15 -25.18) rotate(-15.89)"/>
  <rect class="cls-38" x="141.58" y="274.82" width="18.18" height="18.18" transform="matrix(0.96, -0.27, 0.27, 0.96, -107.91, -20.03)"/>
  <rect class="cls-39" x="161.16" y="269.25" width="18.18" height="18.18" transform="translate(-105.64 -14.88) rotate(-15.89)"/>
  <rect class="cls-40" x="180.74" y="263.58" width="18.18" height="18.18" transform="matrix(0.96, -0.27, 0.27, 0.96, -103.34, -9.74)"/>
  <rect class="cls-41" x="200.34" y="257.81" width="18.18" height="18.18" transform="matrix(0.96, -0.27, 0.27, 0.96, -101.01, -4.59)"/>
  <rect class="cls-42" x="220.03" y="252.07" width="18.18" height="18.18" transform="translate(-98.69 0.58) rotate(-15.89)"/>
  <rect class="cls-43" x="88.34" y="313.39" width="18.18" height="18.18" transform="translate(-120.51 -33.14) rotate(-15.89)"/>
  <rect class="cls-44" x="108.39" y="307.54" width="18.18" height="18.18" transform="translate(-118.14 -27.87) rotate(-15.89)"/>
  <rect class="cls-45" x="128.18" y="301.77" width="18.18" height="18.18" transform="translate(-115.8 -22.67) rotate(-15.89)"/>
  <rect class="cls-46" x="147.74" y="296.33" width="18.18" height="18.18" transform="translate(-113.57 -17.52) rotate(-15.89)"/>
  <rect class="cls-7" x="167.32" y="290.76" width="18.18" height="18.18" transform="translate(-111.29 -12.38) rotate(-15.89)"/>
  <rect class="cls-8" x="186.9" y="285.09" width="18.18" height="18.18" transform="translate(-108.99 -7.23) rotate(-15.89)"/>
  <rect class="cls-9" x="206.5" y="279.32" width="18.18" height="18.18" transform="matrix(0.96, -0.27, 0.27, 0.96, -106.66, -2.09)"/>
  <rect class="cls-10" x="226.19" y="273.58" width="18.18" height="18.18" transform="translate(-104.34 3.09) rotate(-15.89)"/>
  <rect class="cls-47" x="94.26" y="334.16" width="18.18" height="18.18" transform="translate(-125.97 -30.72) rotate(-15.89)"/>
  <rect class="cls-48" x="114.31" y="328.32" width="18.18" height="18.18" transform="translate(-123.6 -25.46) rotate(-15.89)"/>
  <rect class="cls-49" x="134.09" y="322.55" width="18.18" height="18.18" transform="translate(-121.27 -20.26) rotate(-15.89)"/>
  <rect class="cls-50" x="153.65" y="317.11" width="18.18" height="18.18" transform="translate(-119.03 -15.11) rotate(-15.89)"/>
  <rect class="cls-51" x="173.23" y="311.54" width="18.18" height="18.18" transform="translate(-116.76 -9.96) rotate(-15.89)"/>
  <rect class="cls-52" x="192.82" y="305.87" width="18.18" height="18.18" transform="translate(-114.46 -4.82) rotate(-15.89)"/>
  <rect class="cls-53" x="212.41" y="300.1" width="18.18" height="18.18" transform="translate(-112.13 0.33) rotate(-15.89)"/>
  <rect class="cls-54" x="232.1" y="294.36" width="18.18" height="18.18" transform="translate(-109.8 5.5) rotate(-15.89)"/>
  <line class="cls-55" x1="14.49" y1="119.83" x2="51.35" y2="108.99"/>
  <path class="cls-56" d="M242.87,92.72l6,211.05a21,21,0,0,0,15.91,20.44l155.94,39.15c7.9,1.93,18.6-3.33,25.51-10.76,4.15-4.46,6.93-9.7,6.93-14.64l.29-218.54a21,21,0,0,0-17.6-20.78L266.38,72.22C258.39,71,242.87,84.54,242.87,92.72Z" transform="translate(-35.93 -72.14)"/>
  <path class="cls-2" d="M242.87,92.72v212a20.36,20.36,0,0,0,15.59,19.79l160.59,38.77a19.69,19.69,0,0,0,24.31-19.14V126.19a20.36,20.36,0,0,0-17.24-20.12L257.78,80A12.92,12.92,0,0,0,242.87,92.72Z" transform="translate(-35.93 -72.14)"/>
  <path class="cls-57" d="M252.24,105.12V287.28a17.65,17.65,0,0,0,13.94,17l143.6,33.31c11.08,2.57,21.74-5.49,21.74-16.44V133.88a17.74,17.74,0,0,0-15.42-17.29L265.57,94.15C258.56,93.1,252.24,98.31,252.24,105.12Z" transform="translate(-35.93 -72.14)"/>
  <path class="cls-58" d="M251.83,287.25a17.68,17.68,0,0,0,14,17l143.87,33.36c11.1,2.57,21.78-5.51,21.78-16.47V133.61A17.75,17.75,0,0,0,416,116.3Z" transform="translate(-35.93 -72.14)"/>
  <ellipse class="cls-56" cx="331.62" cy="330.31" rx="7.23" ry="7.52" transform="translate(-86.12 528.91) rotate(-80.23)"/>
  <ellipse class="cls-59" cx="331.43" cy="330.02" rx="6.7" ry="6.97" transform="translate(-86 528.48) rotate(-80.23)"/>
  <path class="cls-60" d="M311.4,274.94l155.45-85.06s10-2.61,12.34,1.43-5.23,9.74-7.06,11.09-154.61,83.17-154.61,83.17l-23.91,5.09Z" transform="translate(-35.93 -72.14)"/>
  <path class="cls-1" d="M479.19,191.3c2.34,4.12-5.23,9.74-7.06,11.1s-154.62,83.16-154.62,83.16l-23.91,5.09S476.89,187.26,479.19,191.3Z" transform="translate(-35.93 -72.14)"/>
  <polygon class="cls-61" points="101.05 335.25 188.66 283.49 148.72 273.94 101.05 335.25"/>
  <polygon class="cls-62" points="69.61 201.77 102.87 179.04 234.35 197.53 206.9 221.93 69.61 201.77"/>
  <polygon class="cls-63" points="70.82 269.18 69.61 201.77 206.9 221.93 207.5 290.48 70.82 269.18"/>
  <polygon class="cls-64" points="236.68 265.2 234.35 197.53 206.9 221.93 207.5 290.48 236.68 265.2"/>
  <path class="cls-64" d="M188.22,256.5l-32.14,22.83s-6.35,2.4-6.35,12.49.23,48.49.23,48.49l34.69,5.76.46-48.73s-1.05-6.8,8.61-12.73L223.9,263l-3-8a5.85,5.85,0,0,0-3.77-2.38c-2.26-.19-14.81-2.37-14.81-2.37s-4.08-.75-6.11.57S188.22,256.5,188.22,256.5Z" transform="translate(-35.93 -72.14)"/>
  <path class="cls-65" d="M223.9,263l-3-8a5.76,5.76,0,0,0-3.77-2.38c-2.36-.25-36.23,26.48-36.23,26.48s-7.82,3-7.82,16.91-.42,48-.42,48l11.94,2,.46-48.73s-.27-7,8.61-12.73Z" transform="translate(-35.93 -72.14)"/>
  <path class="cls-65" d="M195.12,355.49s5.61-6.63,5.61-14.79a49.29,49.29,0,0,0-28.9-43.3c-8.63-4-19.1-4.08-22.71-1.52s-41.31,39.35-41.31,39.35,46.84.45,46.84,58.85Z" transform="translate(-35.93 -72.14)"/>
  <path class="cls-64" d="M108.2,334.74s-6.5,1.7-9.87,5.06-26.22,19.37-23.58,36.43c3.28,21.15,17,44.71,43.37,48.43,13.21,1.86,29.9-20.21,29.9-20.21s5.89-5.57,6.63-10.37S157.13,341.08,108.2,334.74Z" transform="translate(-35.93 -72.14)"/>
  <path class="cls-66" d="M91.83,359a13.14,13.14,0,0,0-10.69,9c-2.46,7.59-3.9,18.76,6.3,31.55,14.94,18.73,27.3,22.65,37.94,17.74,9.39-4.34,8-20.78,7.48-24.59a10.28,10.28,0,0,0-.32-1.56c-1.3-4.5-8.83-27.36-28.17-31.71A34.13,34.13,0,0,0,91.83,359Z" transform="translate(-35.93 -72.14)"/>
  <path class="cls-67" d="M85.91,361.18s-10.27,15.32,3.8,34.35c10.39,14.07,19.74,20.72,38.16,20,0,0-6.05,5.57-16.45,3.4-9.72-2-32.92-20.39-32.66-41.11C78.76,377.86,79,366.43,85.91,361.18Z" transform="translate(-35.93 -72.14)"/>
</svg>
