<svg id="Layer_1" data-name="Layer 1" xmlns="http://www.w3.org/2000/svg" width="271.6" height="354.41" viewBox="0 0 271.6 354.41">
  <defs>
    <style>
      .cls-1 {
        fill: #fff;
        fill-rule: evenodd;
      }
    </style>
  </defs>
  <title>blockLogo</title>
  <path class="cls-1" d="M376.81,245c-15.7-97.49-59.39-181.65-133.27-181.65-71,0-114.51,82.05-132.23,170.9l3.94-6.05L131.79,242l16.83,11.09,11.46-11.16,10.51,2.79,11.46-18.13,12.41,20.92,18.15-7,16.24,15.34,33.43-14,20.05,14,10.51-11.16,5.73,5.58,4.78-4.18,11.46,8.37h-7.64l-8.6,5.58-4.78-4.19-9.55,12.56L266.1,255.86l-1.91,7-12.65-4.28-11.23,7.07-8.6,13.94L225,267l-15.28-4.18-8.6,13.94-15.28-16.73-7.64,5.58-6.69-5.58L161,267l-11.46,8.37-3.82-11.16-17.2-8.37-11.4,14.28-9.58-11.53c-7.35,88.35,65.67,159.12,136,159.12C317.42,417.73,391.39,335.4,376.81,245Z" transform="translate(-107.07 -63.32)"/>
</svg>
