<svg id="heading" xmlns="http://www.w3.org/2000/svg" viewBox="0 0 376.44 438.4">
  <defs>
    <style>
      .cls-1, .cls-2 {
        fill: #fff;
      }

      .cls-1, .cls-2, .cls-3 {
        stroke: #fff;
      }

      .cls-1 {
        stroke-miterlimit: 10;
      }

      .cls-2, .cls-3 {
        stroke-linecap: round;
        stroke-linejoin: round;
        stroke-width: 12px;
      }

      .cls-3 {
        fill: none;
        fill-rule: evenodd;
      }
    </style>
  </defs>
  <title>contHeading</title>
  <g>
    <path class="cls-1" d="M122.85,251.22A16.64,16.64,0,0,1,114.3,249a15.81,15.81,0,0,1-5.88-5.94,16.88,16.88,0,0,1-2.13-8.49,17.49,17.49,0,0,1,2.1-8.64,15.29,15.29,0,0,1,5.76-5.91,16.39,16.39,0,0,1,8.4-2.13,15.34,15.34,0,0,1,6.48,1.35,15.58,15.58,0,0,1,5.28,4,2.16,2.16,0,0,1,.6,2,3.13,3.13,0,0,1-1.32,1.8,2.28,2.28,0,0,1-1.86.39,3.66,3.66,0,0,1-1.86-1.05,9.65,9.65,0,0,0-7.32-3.12,10.26,10.26,0,0,0-5.4,1.41,9.78,9.78,0,0,0-3.66,3.93,12.63,12.63,0,0,0-1.32,5.94,12,12,0,0,0,1.35,5.76,10.29,10.29,0,0,0,3.75,4,10.47,10.47,0,0,0,5.58,1.47,12.1,12.1,0,0,0,3.69-.51,8.81,8.81,0,0,0,2.91-1.59,3.64,3.64,0,0,1,2-.87,2.36,2.36,0,0,1,1.8.57,2.87,2.87,0,0,1,1.14,1.89,2.22,2.22,0,0,1-.72,1.89A15.24,15.24,0,0,1,122.85,251.22Z" transform="translate(-61.78 -30.8)"/>
    <path class="cls-1" d="M158.91,251.22a17,17,0,0,1-8.58-2.13,15.44,15.44,0,0,1-5.85-5.88,18.59,18.59,0,0,1,0-17.28,15.44,15.44,0,0,1,5.85-5.88,18.23,18.23,0,0,1,17.1,0,15.44,15.44,0,0,1,5.85,5.88,18.71,18.71,0,0,1,0,17.28,15.22,15.22,0,0,1-5.82,5.88A17,17,0,0,1,158.91,251.22Zm0-5.4a10.52,10.52,0,0,0,5.52-1.44,10.07,10.07,0,0,0,3.75-4,12.14,12.14,0,0,0,1.35-5.82,12.31,12.31,0,0,0-1.35-5.85,10,10,0,0,0-3.75-4,11.3,11.3,0,0,0-11,0,10.23,10.23,0,0,0-3.78,4,12.1,12.1,0,0,0-1.38,5.85,11.92,11.92,0,0,0,1.38,5.82,10.29,10.29,0,0,0,3.78,4A10.52,10.52,0,0,0,158.91,245.82Z" transform="translate(-61.78 -30.8)"/>
    <path class="cls-1" d="M187.59,251a3,3,0,0,1-3.06-3.06V221.22a2.94,2.94,0,0,1,.87-2.22,3,3,0,0,1,5.25,2.22V248a3,3,0,0,1-.84,2.19A2.94,2.94,0,0,1,187.59,251Zm24.66,0a3,3,0,0,1-3.06-3.06V233.22a11,11,0,0,0-1.26-5.58,7.94,7.94,0,0,0-3.39-3.21,10.92,10.92,0,0,0-4.89-1.05,10.05,10.05,0,0,0-4.56,1,8.53,8.53,0,0,0-3.24,2.73,6.67,6.67,0,0,0-1.2,3.93h-3.78a12.6,12.6,0,0,1,1.83-6.75,13.21,13.21,0,0,1,5-4.71,14.63,14.63,0,0,1,7.14-1.74,15.31,15.31,0,0,1,7.41,1.77,12.77,12.77,0,0,1,5.16,5.19,17.16,17.16,0,0,1,1.89,8.4V248a3,3,0,0,1-3.06,3.06Z" transform="translate(-61.78 -30.8)"/>
    <path class="cls-1" d="M224.07,224.52a2.89,2.89,0,0,1-2-.72,2.35,2.35,0,0,1-.78-1.8,2.49,2.49,0,0,1,.78-1.92,2.89,2.89,0,0,1,2-.72h13.86a2.89,2.89,0,0,1,2,.72,2.49,2.49,0,0,1,.78,1.92,2.35,2.35,0,0,1-.78,1.8,2.89,2.89,0,0,1-2,.72ZM237.39,251a9.83,9.83,0,0,1-5.4-1.53,10.74,10.74,0,0,1-3.78-4.17,12.63,12.63,0,0,1-1.38-5.94V210.72a3,3,0,1,1,6,0v28.62a6.16,6.16,0,0,0,1.32,4,4,4,0,0,0,3.24,1.62h2a2.36,2.36,0,0,1,1.83.84A3.12,3.12,0,0,1,242,248a2.7,2.7,0,0,1-1,2.16,3.8,3.8,0,0,1-2.55.84Z" transform="translate(-61.78 -30.8)"/>
    <path class="cls-1" d="M263.19,251.22a14.48,14.48,0,0,1-7.87-2.19,15.46,15.46,0,0,1-5.48-5.94,17.58,17.58,0,0,1-2-8.49,16.69,16.69,0,0,1,2.2-8.52,16.13,16.13,0,0,1,5.94-6,16.54,16.54,0,0,1,22.74,6,16.78,16.78,0,0,1,2.18,8.52h-2.34a17.68,17.68,0,0,1-2,8.49A15.51,15.51,0,0,1,271,249,14.44,14.44,0,0,1,263.19,251.22Zm1.19-5.4a10.2,10.2,0,0,0,9.24-5.49A11.85,11.85,0,0,0,275,234.6a12,12,0,0,0-1.39-5.79,10.2,10.2,0,0,0-9.24-5.49,10.23,10.23,0,0,0-5.42,1.47,10.53,10.53,0,0,0-3.84,4,11.66,11.66,0,0,0-1.41,5.79,11.53,11.53,0,0,0,1.41,5.73,10.53,10.53,0,0,0,3.84,4A10.23,10.23,0,0,0,264.38,245.82ZM277.82,251a3,3,0,0,1-3.05-3.06V238.8l1.13-6.36,5,2.16V248a3,3,0,0,1-3.06,3.06Z" transform="translate(-61.78 -30.8)"/>
    <path class="cls-1" d="M304.88,251.22a16.64,16.64,0,0,1-8.55-2.19,15.81,15.81,0,0,1-5.88-5.94,16.88,16.88,0,0,1-2.13-8.49,17.49,17.49,0,0,1,2.1-8.64,15.29,15.29,0,0,1,5.76-5.91,16.39,16.39,0,0,1,8.4-2.13,15.34,15.34,0,0,1,6.48,1.35,15.58,15.58,0,0,1,5.28,4,2.16,2.16,0,0,1,.6,2,3.13,3.13,0,0,1-1.32,1.8,2.28,2.28,0,0,1-1.86.39,3.66,3.66,0,0,1-1.86-1.05,9.65,9.65,0,0,0-7.32-3.12,10.26,10.26,0,0,0-5.4,1.41,9.78,9.78,0,0,0-3.66,3.93,12.63,12.63,0,0,0-1.32,5.94,12,12,0,0,0,1.35,5.76,10.29,10.29,0,0,0,3.75,4,10.47,10.47,0,0,0,5.58,1.47,12.1,12.1,0,0,0,3.69-.51,8.81,8.81,0,0,0,2.91-1.59,3.64,3.64,0,0,1,2-.87,2.36,2.36,0,0,1,1.8.57,2.87,2.87,0,0,1,1.14,1.89,2.22,2.22,0,0,1-.72,1.89A15.24,15.24,0,0,1,304.88,251.22Z" transform="translate(-61.78 -30.8)"/>
    <path class="cls-1" d="M324.68,224.52a2.89,2.89,0,0,1-2-.72,2.35,2.35,0,0,1-.78-1.8,2.49,2.49,0,0,1,.78-1.92,2.89,2.89,0,0,1,2-.72h13.86a2.89,2.89,0,0,1,2,.72,2.49,2.49,0,0,1,.78,1.92,2.35,2.35,0,0,1-.78,1.8,2.89,2.89,0,0,1-2,.72ZM338,251a9.83,9.83,0,0,1-5.4-1.53,10.74,10.74,0,0,1-3.78-4.17,12.63,12.63,0,0,1-1.38-5.94V210.72a3,3,0,1,1,6,0v28.62a6.16,6.16,0,0,0,1.32,4A4,4,0,0,0,338,245h2a2.36,2.36,0,0,1,1.83.84,3.12,3.12,0,0,1,.75,2.16,2.7,2.7,0,0,1-1,2.16,3.8,3.8,0,0,1-2.55.84Z" transform="translate(-61.78 -30.8)"/>
  </g>
  <line class="cls-2" x1="301.8" y1="244.09" x2="11.49" y2="245.37"/>
  <path class="cls-3" d="M156.34,463C97.45,422.67,55.91,347.47,70.84,262.34,87.11,169.49,124.12,79.68,182.94,40M315.27,36.8c60.72,37,98.44,126.1,114.47,225.54C443,344.68,401.56,422,342.57,463.2" transform="translate(-61.78 -30.8)"/>
</svg>
