<svg id="Layer_1" data-name="Layer 1" xmlns="http://www.w3.org/2000/svg" viewBox="0 0 97.51 105.88">
  <defs>
    <style>
      .cls-1 {
        fill: #fff;
        fill-rule: evenodd;
      }
    </style>
  </defs>
  <title>hatchLogo</title>
  <path class="cls-1" d="M83.64,54.1C79.55,28.71,68.17,6.8,48.93,6.8,30.44,6.8,19.11,28.16,14.5,51.3l1-1.57,4.31,3.6,4.38,2.89,3-2.91,2.74.73,3-4.72,3.23,5.45,4.73-1.82,4.23,4,8.7-3.63L59,56.94,61.77,54l1.49,1.45,1.24-1.09,3,2.18h-2L63.26,58,62,56.94l-2.49,3.27-4.73-3.27-.5,1.82L51,57.64l-2.93,1.84-2.24,3.63-1.74-3.27-4-1.09-2.24,3.63-4-4.36-2,1.45L30.18,58l-2.74,1.82-3,2.18-1-2.91L19,56.94l-3,3.72-2.49-3c-1.91,23,17.1,41.44,35.4,41.44C68.17,99.09,87.43,77.65,83.64,54.1Z"/>
</svg>
