<svg id="Layer_1" data-name="Layer 1" xmlns="http://www.w3.org/2000/svg" viewBox="0 0 366.22 437.08">
  <defs>
    <style>
      .cls-1, .cls-5, .cls-6, .cls-7 {
        fill: none;
        stroke: #bcbec0;
        stroke-miterlimit: 10;
      }

      .cls-1 {
        stroke-width: 0.34px;
      }

      .cls-2 {
        fill: #af6412;
      }

      .cls-3 {
        fill: #f28907;
      }

      .cls-4 {
        fill: #e8e8e8;
      }

      .cls-5 {
        stroke-width: 1.32px;
      }

      .cls-6 {
        stroke-width: 0.99px;
      }

      .cls-7 {
        stroke-width: 0.79px;
      }
    </style>
  </defs>
  <title>icon_ui2</title>
  <g>
    <line class="cls-1" x1="104.4" y1="0.17" x2="108.12" y2="0.17"/>
    <line class="cls-1" x1="104.43" y1="1.46" x2="108.15" y2="1.46"/>
    <line class="cls-1" x1="104.45" y1="2.66" x2="108.17" y2="2.66"/>
    <rect class="cls-2" x="1.54" y="32.51" width="175.84" height="299.13" rx="22.54"/>
    <rect class="cls-3" x="0.65" y="37.28" width="172.83" height="299.13" rx="22.35"/>
    <rect class="cls-4" x="0.37" y="67.98" width="173.24" height="118.27"/>
    <line class="cls-5" x1="0.37" y1="186.25" x2="173.61" y2="67.98"/>
    <line class="cls-5" x1="0.37" y1="67.98" x2="173.61" y2="186.25"/>
    <line class="cls-6" x1="148.64" y1="52.46" x2="159.39" y2="52.46"/>
    <line class="cls-6" x1="148.73" y1="56.2" x2="159.48" y2="56.2"/>
    <line class="cls-6" x1="148.8" y1="59.65" x2="159.54" y2="59.65"/>
    <rect class="cls-4" x="9.6" y="199.38" width="53.67" height="46.93"/>
    <line class="cls-5" x1="63.27" y1="246.31" x2="9.6" y2="199.38"/>
    <line class="cls-5" x1="9.6" y1="246.31" x2="63.27" y2="199.38"/>
    <line class="cls-7" x1="71.56" y1="206.59" x2="157.06" y2="206.59"/>
    <line class="cls-7" x1="71.74" y1="211.11" x2="157.24" y2="211.11"/>
    <line class="cls-7" x1="71.63" y1="215.48" x2="157.14" y2="215.48"/>
    <line class="cls-7" x1="71.81" y1="219.7" x2="157.32" y2="219.7"/>
    <line class="cls-7" x1="72.1" y1="224.25" x2="157.6" y2="224.25"/>
    <line class="cls-7" x1="72.1" y1="229.09" x2="157.6" y2="229.09"/>
    <line class="cls-7" x1="71.99" y1="234.26" x2="157.5" y2="234.26"/>
    <line class="cls-7" x1="71.99" y1="239.38" x2="135.27" y2="239.38"/>
    <line class="cls-7" x1="71.92" y1="244.54" x2="118.61" y2="244.54"/>
    <rect class="cls-4" x="111.28" y="256.21" width="53.67" height="46.93"/>
    <line class="cls-5" x1="164.95" y1="303.13" x2="111.28" y2="256.21"/>
    <line class="cls-5" x1="111.28" y1="303.13" x2="164.95" y2="256.21"/>
    <line class="cls-7" x1="15.11" y1="261.68" x2="100.61" y2="261.68"/>
    <line class="cls-7" x1="15.29" y1="266.22" x2="100.79" y2="266.22"/>
    <line class="cls-7" x1="15.18" y1="270.58" x2="100.69" y2="270.58"/>
    <line class="cls-7" x1="15.36" y1="274.8" x2="100.87" y2="274.8"/>
    <line class="cls-7" x1="15.65" y1="279.35" x2="101.15" y2="279.35"/>
    <line class="cls-7" x1="15.65" y1="284.19" x2="101.15" y2="284.19"/>
    <line class="cls-7" x1="15.54" y1="289.36" x2="101.05" y2="289.36"/>
    <line class="cls-7" x1="15.54" y1="294.49" x2="78.82" y2="294.49"/>
    <line class="cls-7" x1="15.47" y1="299.63" x2="62.15" y2="299.63"/>
  </g>
  <g>
    <line class="cls-1" x1="293.23" y1="100.84" x2="296.96" y2="100.84"/>
    <line class="cls-1" x1="293.26" y1="102.13" x2="296.98" y2="102.13"/>
    <line class="cls-1" x1="293.28" y1="103.32" x2="297" y2="103.32"/>
    <rect class="cls-2" x="190.37" y="133.18" width="175.84" height="299.13" rx="22.54"/>
    <rect class="cls-3" x="189.48" y="137.95" width="172.83" height="299.13" rx="22.35"/>
    <rect class="cls-4" x="189.21" y="168.64" width="173.24" height="118.27"/>
    <line class="cls-5" x1="189.21" y1="286.92" x2="362.44" y2="168.64"/>
    <line class="cls-5" x1="189.21" y1="168.64" x2="362.44" y2="286.92"/>
    <line class="cls-6" x1="337.48" y1="153.12" x2="348.23" y2="153.12"/>
    <line class="cls-6" x1="337.56" y1="156.87" x2="348.31" y2="156.87"/>
    <line class="cls-6" x1="337.63" y1="160.31" x2="348.37" y2="160.31"/>
    <rect class="cls-4" x="198.44" y="300.05" width="53.67" height="46.93"/>
    <line class="cls-5" x1="252.1" y1="346.98" x2="198.44" y2="300.05"/>
    <line class="cls-5" x1="198.44" y1="346.98" x2="252.1" y2="300.05"/>
    <line class="cls-7" x1="260.39" y1="307.25" x2="345.9" y2="307.25"/>
    <line class="cls-7" x1="260.57" y1="311.78" x2="346.08" y2="311.78"/>
    <line class="cls-7" x1="260.47" y1="316.15" x2="345.98" y2="316.15"/>
    <line class="cls-7" x1="260.65" y1="320.37" x2="346.16" y2="320.37"/>
    <line class="cls-7" x1="260.93" y1="324.92" x2="346.44" y2="324.92"/>
    <line class="cls-7" x1="260.93" y1="329.75" x2="346.44" y2="329.75"/>
    <line class="cls-7" x1="260.83" y1="334.93" x2="346.34" y2="334.93"/>
    <line class="cls-7" x1="260.83" y1="340.05" x2="324.11" y2="340.05"/>
    <line class="cls-7" x1="260.75" y1="345.2" x2="307.44" y2="345.2"/>
    <rect class="cls-4" x="300.11" y="356.87" width="53.67" height="46.93"/>
    <line class="cls-5" x1="353.78" y1="403.8" x2="300.11" y2="356.87"/>
    <line class="cls-5" x1="300.11" y1="403.8" x2="353.78" y2="356.87"/>
    <line class="cls-7" x1="203.94" y1="362.35" x2="289.44" y2="362.35"/>
    <line class="cls-7" x1="204.12" y1="366.88" x2="289.62" y2="366.88"/>
    <line class="cls-7" x1="204.01" y1="371.25" x2="289.52" y2="371.25"/>
    <line class="cls-7" x1="204.19" y1="375.47" x2="289.7" y2="375.47"/>
    <line class="cls-7" x1="204.48" y1="380.02" x2="289.98" y2="380.02"/>
    <line class="cls-7" x1="204.48" y1="384.86" x2="289.98" y2="384.86"/>
    <line class="cls-7" x1="204.37" y1="390.03" x2="289.88" y2="390.03"/>
    <line class="cls-7" x1="204.37" y1="395.15" x2="267.66" y2="395.15"/>
    <line class="cls-7" x1="204.3" y1="400.3" x2="250.99" y2="400.3"/>
  </g>
</svg>
