<svg id="Layer_1" data-name="Layer 1" xmlns="http://www.w3.org/2000/svg" xmlns:xlink="http://www.w3.org/1999/xlink" width="395.39" height="653.69" viewBox="0 0 395.39 653.69">
  <defs>
    <style>
      .cls-1, .cls-6, .cls-7, .cls-8 {
        fill: none;
      }

      .cls-2 {
        clip-path: url(#clip-path);
      }

      .cls-3 {
        fill: #e5e1b1;
      }

      .cls-4 {
        fill: #fffdd2;
      }

      .cls-5 {
        fill: #e8e8e8;
      }

      .cls-6, .cls-7, .cls-8 {
        stroke: #bcbec0;
        stroke-miterlimit: 10;
      }

      .cls-6 {
        stroke-width: 0.89px;
      }

      .cls-7 {
        stroke-width: 0.67px;
      }

      .cls-8 {
        stroke-width: 0.54px;
      }
    </style>
    <clipPath id="clip-path" transform="translate(-54.13 114.84)">
      <rect class="cls-1" x="19.1" y="21.21" width="449.25" height="442.98"/>
    </clipPath>
  </defs>
  <title>ui</title>
  <g class="cls-2">
    <rect class="cls-3" x="2.04" y="138.21" width="119" height="202.43" rx="15.25"/>
    <rect class="cls-4" x="1.44" y="141.43" width="116.96" height="202.43" rx="15.12"/>
    <rect class="cls-5" x="1.25" y="162.21" width="117.24" height="80.04"/>
    <line class="cls-6" x1="1.25" y1="242.25" x2="118.49" y2="162.21"/>
    <line class="cls-6" x1="1.25" y1="162.21" x2="118.49" y2="242.25"/>
    <line class="cls-7" x1="101.59" y1="151.71" x2="108.87" y2="151.71"/>
    <line class="cls-7" x1="101.65" y1="154.24" x2="108.93" y2="154.24"/>
    <line class="cls-7" x1="101.69" y1="156.57" x2="108.97" y2="156.57"/>
    <rect class="cls-5" x="7.5" y="251.14" width="36.32" height="31.76"/>
    <line class="cls-6" x1="43.82" y1="282.9" x2="7.5" y2="251.14"/>
    <line class="cls-6" x1="7.5" y1="282.9" x2="43.82" y2="251.14"/>
    <line class="cls-8" x1="49.43" y1="256.01" x2="107.29" y2="256.01"/>
    <line class="cls-8" x1="49.55" y1="259.07" x2="107.41" y2="259.07"/>
    <line class="cls-8" x1="49.48" y1="262.03" x2="107.34" y2="262.03"/>
    <line class="cls-8" x1="49.6" y1="264.89" x2="107.46" y2="264.89"/>
    <line class="cls-8" x1="49.79" y1="267.97" x2="107.66" y2="267.97"/>
    <line class="cls-8" x1="49.79" y1="271.24" x2="107.66" y2="271.24"/>
    <line class="cls-8" x1="49.72" y1="274.74" x2="107.59" y2="274.74"/>
    <line class="cls-8" x1="49.72" y1="278.21" x2="92.55" y2="278.21"/>
    <line class="cls-8" x1="49.67" y1="281.69" x2="81.26" y2="281.69"/>
    <rect class="cls-5" x="76.31" y="289.59" width="36.32" height="31.76"/>
    <line class="cls-6" x1="112.62" y1="321.35" x2="76.31" y2="289.59"/>
    <line class="cls-6" x1="76.31" y1="321.35" x2="112.62" y2="289.59"/>
    <line class="cls-8" x1="11.22" y1="293.3" x2="69.09" y2="293.3"/>
    <line class="cls-8" x1="11.34" y1="296.36" x2="69.21" y2="296.36"/>
    <line class="cls-8" x1="11.27" y1="299.32" x2="69.14" y2="299.32"/>
    <line class="cls-8" x1="11.4" y1="302.18" x2="69.26" y2="302.18"/>
    <line class="cls-8" x1="11.59" y1="305.26" x2="69.45" y2="305.26"/>
    <line class="cls-8" x1="11.59" y1="308.53" x2="69.45" y2="308.53"/>
    <line class="cls-8" x1="11.52" y1="312.03" x2="69.38" y2="312.03"/>
    <line class="cls-8" x1="11.52" y1="315.5" x2="54.34" y2="315.5"/>
    <line class="cls-8" x1="11.47" y1="318.98" x2="43.06" y2="318.98"/>
    <rect class="cls-3" x="141.14" y="221.52" width="119" height="202.43" rx="15.25"/>
    <rect class="cls-4" x="140.54" y="224.74" width="116.96" height="202.43" rx="15.12"/>
    <rect class="cls-5" x="140.35" y="245.52" width="117.24" height="80.04"/>
    <line class="cls-6" x1="140.35" y1="325.56" x2="257.59" y2="245.52"/>
    <line class="cls-6" x1="140.35" y1="245.52" x2="257.59" y2="325.56"/>
    <line class="cls-7" x1="240.7" y1="235.01" x2="247.97" y2="235.01"/>
    <line class="cls-7" x1="240.76" y1="237.55" x2="248.03" y2="237.55"/>
    <line class="cls-7" x1="240.8" y1="239.88" x2="248.07" y2="239.88"/>
    <rect class="cls-5" x="146.6" y="334.45" width="36.32" height="31.76"/>
    <line class="cls-6" x1="182.92" y1="366.2" x2="146.6" y2="334.45"/>
    <line class="cls-6" x1="146.6" y1="366.2" x2="182.92" y2="334.45"/>
    <line class="cls-8" x1="188.53" y1="339.32" x2="246.39" y2="339.32"/>
    <line class="cls-8" x1="188.65" y1="342.38" x2="246.52" y2="342.38"/>
    <line class="cls-8" x1="188.58" y1="345.34" x2="246.44" y2="345.34"/>
    <line class="cls-8" x1="188.7" y1="348.19" x2="246.57" y2="348.19"/>
    <line class="cls-8" x1="188.9" y1="351.27" x2="246.76" y2="351.27"/>
    <line class="cls-8" x1="188.9" y1="354.55" x2="246.76" y2="354.55"/>
    <line class="cls-8" x1="188.82" y1="358.05" x2="246.69" y2="358.05"/>
    <line class="cls-8" x1="188.82" y1="361.52" x2="231.65" y2="361.52"/>
    <line class="cls-8" x1="188.77" y1="365" x2="220.37" y2="365"/>
    <rect class="cls-5" x="215.41" y="372.9" width="36.32" height="31.76"/>
    <line class="cls-6" x1="251.73" y1="404.66" x2="215.41" y2="372.9"/>
    <line class="cls-6" x1="215.41" y1="404.66" x2="251.73" y2="372.9"/>
    <line class="cls-8" x1="150.33" y1="376.61" x2="208.19" y2="376.61"/>
    <line class="cls-8" x1="150.45" y1="379.67" x2="208.31" y2="379.67"/>
    <line class="cls-8" x1="150.38" y1="382.63" x2="208.24" y2="382.63"/>
    <line class="cls-8" x1="150.5" y1="385.48" x2="208.36" y2="385.48"/>
    <line class="cls-8" x1="150.69" y1="388.56" x2="208.56" y2="388.56"/>
    <line class="cls-8" x1="150.69" y1="391.84" x2="208.56" y2="391.84"/>
    <line class="cls-8" x1="150.62" y1="395.34" x2="208.49" y2="395.34"/>
    <line class="cls-8" x1="150.62" y1="398.8" x2="193.45" y2="398.8"/>
    <line class="cls-8" x1="150.57" y1="402.29" x2="182.16" y2="402.29"/>
    <rect class="cls-3" x="1.04" y="360.76" width="119" height="202.43" rx="15.25"/>
    <rect class="cls-4" x="0.44" y="363.98" width="116.96" height="202.43" rx="15.12"/>
    <rect class="cls-5" x="0.25" y="384.76" width="117.24" height="80.04"/>
    <line class="cls-6" x1="0.25" y1="464.79" x2="117.49" y2="384.76"/>
    <line class="cls-6" x1="0.25" y1="384.76" x2="117.49" y2="464.79"/>
    <line class="cls-7" x1="100.59" y1="374.25" x2="107.87" y2="374.25"/>
    <line class="cls-7" x1="100.65" y1="376.79" x2="107.93" y2="376.79"/>
    <line class="cls-7" x1="100.7" y1="379.12" x2="107.97" y2="379.12"/>
    <rect class="cls-5" x="6.5" y="473.68" width="36.32" height="31.76"/>
    <line class="cls-6" x1="42.82" y1="505.44" x2="6.5" y2="473.68"/>
    <line class="cls-6" x1="6.5" y1="505.44" x2="42.82" y2="473.68"/>
    <line class="cls-8" x1="48.43" y1="478.56" x2="106.29" y2="478.56"/>
    <line class="cls-8" x1="48.55" y1="481.62" x2="106.41" y2="481.62"/>
    <line class="cls-8" x1="48.48" y1="484.58" x2="106.34" y2="484.58"/>
    <line class="cls-8" x1="48.6" y1="487.43" x2="106.47" y2="487.43"/>
    <line class="cls-8" x1="48.79" y1="490.51" x2="106.66" y2="490.51"/>
    <line class="cls-8" x1="48.79" y1="493.79" x2="106.66" y2="493.79"/>
    <line class="cls-8" x1="48.72" y1="497.29" x2="106.59" y2="497.29"/>
    <line class="cls-8" x1="48.72" y1="500.75" x2="91.55" y2="500.75"/>
    <line class="cls-8" x1="48.67" y1="504.24" x2="80.27" y2="504.24"/>
    <rect class="cls-5" x="75.31" y="512.13" width="36.32" height="31.76"/>
    <line class="cls-6" x1="111.63" y1="543.89" x2="75.31" y2="512.13"/>
    <line class="cls-6" x1="75.31" y1="543.89" x2="111.63" y2="512.13"/>
    <line class="cls-8" x1="10.22" y1="515.84" x2="68.09" y2="515.84"/>
    <line class="cls-8" x1="10.35" y1="518.91" x2="68.21" y2="518.91"/>
    <line class="cls-8" x1="10.28" y1="521.87" x2="68.14" y2="521.87"/>
    <line class="cls-8" x1="10.4" y1="524.72" x2="68.26" y2="524.72"/>
    <line class="cls-8" x1="10.59" y1="527.8" x2="68.45" y2="527.8"/>
    <line class="cls-8" x1="10.59" y1="531.07" x2="68.45" y2="531.07"/>
    <line class="cls-8" x1="10.52" y1="534.58" x2="68.38" y2="534.58"/>
    <line class="cls-8" x1="10.52" y1="538.04" x2="53.35" y2="538.04"/>
    <line class="cls-8" x1="10.47" y1="541.53" x2="42.06" y2="541.53"/>
    <rect class="cls-3" x="141.8" y="448.03" width="119" height="202.43" rx="15.25"/>
    <rect class="cls-4" x="141.2" y="451.25" width="116.96" height="202.43" rx="15.12"/>
    <rect class="cls-5" x="141.01" y="472.03" width="117.24" height="80.04"/>
    <line class="cls-6" x1="141.01" y1="552.07" x2="258.25" y2="472.03"/>
    <line class="cls-6" x1="141.01" y1="472.03" x2="258.25" y2="552.07"/>
    <line class="cls-7" x1="241.36" y1="461.52" x2="248.63" y2="461.52"/>
    <line class="cls-7" x1="241.42" y1="464.06" x2="248.69" y2="464.06"/>
    <line class="cls-7" x1="241.46" y1="466.39" x2="248.73" y2="466.39"/>
    <rect class="cls-5" x="147.26" y="560.96" width="36.32" height="31.76"/>
    <line class="cls-6" x1="183.58" y1="592.72" x2="147.26" y2="560.96"/>
    <line class="cls-6" x1="147.26" y1="592.72" x2="183.58" y2="560.96"/>
    <line class="cls-8" x1="189.19" y1="565.83" x2="247.05" y2="565.83"/>
    <line class="cls-8" x1="189.31" y1="568.89" x2="247.18" y2="568.89"/>
    <line class="cls-8" x1="189.24" y1="571.85" x2="247.1" y2="571.85"/>
    <line class="cls-8" x1="189.36" y1="574.71" x2="247.23" y2="574.71"/>
    <line class="cls-8" x1="189.55" y1="577.79" x2="247.42" y2="577.79"/>
    <line class="cls-8" x1="189.55" y1="581.06" x2="247.42" y2="581.06"/>
    <line class="cls-8" x1="189.48" y1="584.56" x2="247.35" y2="584.56"/>
    <line class="cls-8" x1="189.48" y1="588.03" x2="232.31" y2="588.03"/>
    <line class="cls-8" x1="189.43" y1="591.51" x2="221.03" y2="591.51"/>
    <rect class="cls-5" x="216.07" y="599.41" width="36.32" height="31.76"/>
    <line class="cls-6" x1="252.39" y1="631.17" x2="216.07" y2="599.41"/>
    <line class="cls-6" x1="216.07" y1="631.17" x2="252.39" y2="599.41"/>
    <line class="cls-8" x1="150.99" y1="603.12" x2="208.85" y2="603.12"/>
    <line class="cls-8" x1="151.11" y1="606.18" x2="208.97" y2="606.18"/>
    <line class="cls-8" x1="151.04" y1="609.14" x2="208.9" y2="609.14"/>
    <line class="cls-8" x1="151.16" y1="612" x2="209.02" y2="612"/>
    <line class="cls-8" x1="151.35" y1="615.08" x2="209.22" y2="615.08"/>
    <line class="cls-8" x1="151.35" y1="618.35" x2="209.22" y2="618.35"/>
    <line class="cls-8" x1="151.28" y1="621.85" x2="209.15" y2="621.85"/>
    <line class="cls-8" x1="151.28" y1="625.32" x2="194.11" y2="625.32"/>
    <line class="cls-8" x1="151.23" y1="628.8" x2="182.82" y2="628.8"/>
    <rect class="cls-3" x="273.39" y="139.26" width="119" height="202.43" rx="15.25"/>
    <rect class="cls-4" x="272.79" y="142.48" width="116.96" height="202.43" rx="15.12"/>
    <rect class="cls-5" x="272.61" y="163.25" width="117.24" height="80.04"/>
    <line class="cls-6" x1="272.61" y1="243.29" x2="389.84" y2="163.25"/>
    <line class="cls-6" x1="272.61" y1="163.25" x2="389.84" y2="243.29"/>
    <line class="cls-7" x1="372.95" y1="152.75" x2="380.22" y2="152.75"/>
    <line class="cls-7" x1="373.01" y1="155.28" x2="380.28" y2="155.28"/>
    <line class="cls-7" x1="373.05" y1="157.62" x2="380.32" y2="157.62"/>
    <rect class="cls-5" x="278.86" y="252.18" width="36.32" height="31.76"/>
    <line class="cls-6" x1="315.17" y1="283.94" x2="278.86" y2="252.18"/>
    <line class="cls-6" x1="278.86" y1="283.94" x2="315.17" y2="252.18"/>
    <line class="cls-8" x1="320.78" y1="257.05" x2="378.65" y2="257.05"/>
    <line class="cls-8" x1="320.9" y1="260.12" x2="378.77" y2="260.12"/>
    <line class="cls-8" x1="320.83" y1="263.08" x2="378.7" y2="263.08"/>
    <line class="cls-8" x1="320.95" y1="265.93" x2="378.82" y2="265.93"/>
    <line class="cls-8" x1="321.15" y1="269.01" x2="379.01" y2="269.01"/>
    <line class="cls-8" x1="321.15" y1="272.28" x2="379.01" y2="272.28"/>
    <line class="cls-8" x1="321.08" y1="275.79" x2="378.94" y2="275.79"/>
    <line class="cls-8" x1="321.08" y1="279.25" x2="363.9" y2="279.25"/>
    <line class="cls-8" x1="321.02" y1="282.74" x2="352.62" y2="282.74"/>
    <rect class="cls-5" x="347.66" y="290.63" width="36.32" height="31.76"/>
    <line class="cls-6" x1="383.98" y1="322.39" x2="347.66" y2="290.63"/>
    <line class="cls-6" x1="347.66" y1="322.39" x2="383.98" y2="290.63"/>
    <line class="cls-8" x1="282.58" y1="294.34" x2="340.44" y2="294.34"/>
    <line class="cls-8" x1="282.7" y1="297.41" x2="340.56" y2="297.41"/>
    <line class="cls-8" x1="282.63" y1="300.37" x2="340.49" y2="300.37"/>
    <line class="cls-8" x1="282.75" y1="303.22" x2="340.62" y2="303.22"/>
    <line class="cls-8" x1="282.94" y1="306.3" x2="340.81" y2="306.3"/>
    <line class="cls-8" x1="282.94" y1="309.57" x2="340.81" y2="309.57"/>
    <line class="cls-8" x1="282.87" y1="313.07" x2="340.74" y2="313.07"/>
    <line class="cls-8" x1="282.87" y1="316.54" x2="325.7" y2="316.54"/>
    <line class="cls-8" x1="282.82" y1="320.02" x2="314.42" y2="320.02"/>
    <rect class="cls-3" x="137.73" width="119" height="202.43" rx="15.25"/>
    <rect class="cls-4" x="137.13" y="3.22" width="116.96" height="202.43" rx="15.12"/>
    <rect class="cls-5" x="136.94" y="24" width="117.24" height="80.04"/>
    <line class="cls-6" x1="136.94" y1="104.04" x2="254.18" y2="24"/>
    <line class="cls-6" x1="136.94" y1="24" x2="254.18" y2="104.04"/>
    <line class="cls-7" x1="237.29" y1="13.49" x2="244.56" y2="13.49"/>
    <line class="cls-7" x1="237.35" y1="16.03" x2="244.62" y2="16.03"/>
    <line class="cls-7" x1="237.39" y1="18.36" x2="244.66" y2="18.36"/>
    <rect class="cls-5" x="143.19" y="112.93" width="36.32" height="31.76"/>
    <line class="cls-6" x1="179.51" y1="144.68" x2="143.19" y2="112.93"/>
    <line class="cls-6" x1="143.19" y1="144.68" x2="179.51" y2="112.93"/>
    <line class="cls-8" x1="185.12" y1="117.8" x2="242.98" y2="117.8"/>
    <line class="cls-8" x1="185.24" y1="120.86" x2="243.11" y2="120.86"/>
    <line class="cls-8" x1="185.17" y1="123.82" x2="243.04" y2="123.82"/>
    <line class="cls-8" x1="185.29" y1="126.67" x2="243.16" y2="126.67"/>
    <line class="cls-8" x1="185.49" y1="129.75" x2="243.35" y2="129.75"/>
    <line class="cls-8" x1="185.49" y1="133.03" x2="243.35" y2="133.03"/>
    <line class="cls-8" x1="185.42" y1="136.53" x2="243.28" y2="136.53"/>
    <line class="cls-8" x1="185.42" y1="140" x2="228.24" y2="140"/>
    <line class="cls-8" x1="185.36" y1="143.48" x2="216.96" y2="143.48"/>
    <rect class="cls-5" x="212" y="151.38" width="36.32" height="31.76"/>
    <line class="cls-6" x1="248.32" y1="183.14" x2="212" y2="151.38"/>
    <line class="cls-6" x1="212" y1="183.14" x2="248.32" y2="151.38"/>
    <line class="cls-8" x1="146.92" y1="155.09" x2="204.78" y2="155.09"/>
    <line class="cls-8" x1="147.04" y1="158.15" x2="204.9" y2="158.15"/>
    <line class="cls-8" x1="146.97" y1="161.11" x2="204.83" y2="161.11"/>
    <line class="cls-8" x1="147.09" y1="163.96" x2="204.95" y2="163.96"/>
    <line class="cls-8" x1="147.28" y1="167.04" x2="205.15" y2="167.04"/>
    <line class="cls-8" x1="147.28" y1="170.32" x2="205.15" y2="170.32"/>
    <line class="cls-8" x1="147.21" y1="173.82" x2="205.08" y2="173.82"/>
    <line class="cls-8" x1="147.21" y1="177.28" x2="190.04" y2="177.28"/>
    <line class="cls-8" x1="147.16" y1="180.77" x2="178.75" y2="180.77"/>
    <rect class="cls-3" x="276.39" y="365.24" width="119" height="202.43" rx="15.25"/>
    <rect class="cls-4" x="275.78" y="368.47" width="116.96" height="202.43" rx="15.12"/>
    <rect class="cls-5" x="275.6" y="389.24" width="117.24" height="80.04"/>
    <line class="cls-6" x1="275.6" y1="469.28" x2="392.84" y2="389.24"/>
    <line class="cls-6" x1="275.6" y1="389.24" x2="392.84" y2="469.28"/>
    <line class="cls-7" x1="375.94" y1="378.74" x2="383.21" y2="378.74"/>
    <line class="cls-7" x1="376" y1="381.27" x2="383.27" y2="381.27"/>
    <line class="cls-7" x1="376.04" y1="383.6" x2="383.32" y2="383.6"/>
    <rect class="cls-5" x="281.85" y="478.17" width="36.32" height="31.76"/>
    <line class="cls-6" x1="318.16" y1="509.93" x2="281.85" y2="478.17"/>
    <line class="cls-6" x1="281.85" y1="509.93" x2="318.16" y2="478.17"/>
    <line class="cls-8" x1="323.77" y1="483.04" x2="381.64" y2="483.04"/>
    <line class="cls-8" x1="323.89" y1="486.11" x2="381.76" y2="486.11"/>
    <line class="cls-8" x1="323.82" y1="489.07" x2="381.69" y2="489.07"/>
    <line class="cls-8" x1="323.95" y1="491.92" x2="381.81" y2="491.92"/>
    <line class="cls-8" x1="324.14" y1="495" x2="382" y2="495"/>
    <line class="cls-8" x1="324.14" y1="498.27" x2="382" y2="498.27"/>
    <line class="cls-8" x1="324.07" y1="501.77" x2="381.93" y2="501.77"/>
    <line class="cls-8" x1="324.07" y1="505.24" x2="366.89" y2="505.24"/>
    <line class="cls-8" x1="324.02" y1="508.72" x2="355.61" y2="508.72"/>
    <rect class="cls-5" x="350.65" y="516.62" width="36.32" height="31.76"/>
    <line class="cls-6" x1="386.97" y1="548.38" x2="350.65" y2="516.62"/>
    <line class="cls-6" x1="350.65" y1="548.38" x2="386.97" y2="516.62"/>
    <line class="cls-8" x1="285.57" y1="520.33" x2="343.43" y2="520.33"/>
    <line class="cls-8" x1="285.69" y1="523.4" x2="343.56" y2="523.4"/>
    <line class="cls-8" x1="285.62" y1="526.35" x2="343.49" y2="526.35"/>
    <line class="cls-8" x1="285.74" y1="529.21" x2="343.61" y2="529.21"/>
    <line class="cls-8" x1="285.94" y1="532.29" x2="343.8" y2="532.29"/>
    <line class="cls-8" x1="285.94" y1="535.56" x2="343.8" y2="535.56"/>
    <line class="cls-8" x1="285.87" y1="539.06" x2="343.73" y2="539.06"/>
    <line class="cls-8" x1="285.87" y1="542.53" x2="328.69" y2="542.53"/>
    <line class="cls-8" x1="285.81" y1="546.01" x2="317.41" y2="546.01"/>
  </g>
</svg>
