<svg id="Layer_1" data-name="Layer 1" xmlns="http://www.w3.org/2000/svg" width="285.72" height="329.22" viewBox="0 0 285.72 329.22">
  <defs>
    <style>
      .cls-1 {
        fill: none;
        stroke: #fff;
        stroke-linecap: round;
        stroke-linejoin: round;
        stroke-width: 29.9px;
      }

      .cls-1, .cls-2 {
        fill-rule: evenodd;
      }

      .cls-2 {
        fill: #fff;
      }
    </style>
  </defs>
  <title>whiteLogo</title>
  <path class="cls-1" d="M177.62,401.08c-41.33-28.28-70.49-81.07-60-140.82C129,195.08,155,132,196.3,104.16m92.89-2.22c42.62,26,69.1,88.52,80.35,158.32,9.31,57.8-19.78,112.08-61.19,141" transform="translate(-100.51 -86.99)"/>
  <path class="cls-2" d="M118.79,246l22.35-11.52,16.1,13.44,16.39,10.79,11.15-10.86L195,250.53l11.15-17.65,12.09,20.36,17.66-6.79,15.81,14.94,32.53-13.58,19.53,13.58L314,250.53l5.58,5.43,4.65-4.08L335.38,260H328l-8.37,5.43-4.65-4.07-9.3,12.22L288,261.39l-1.86,6.79L273.81,264l-10.94,6.88-8.37,13.58L248,272.25l-14.88-4.07-8.36,13.57-14.88-16.29-7.44,5.43-6.5-5.43-10.23,6.79-11.16,8.14-3.71-10.86-16.74-8.14L143,275.29l-16-19.22-10.13,8L110.41,275Z" transform="translate(-100.51 -86.99)"/>
</svg>
